<svg xmlns="http://www.w3.org/2000/svg" width="58" height="64" viewBox="0 0 58 64">
    <g fill="#000" fill-rule="nonzero">
        <path d="M25.255 12.397a1.044 1.044 0 0 0-1.01-.99c-.257-.008-6.222-.214-8.991 2.491-2.77 2.706-2.556 8.554-2.546 8.801.022.537.462.968 1.01.99.039 0 .2.008.46.008.17 0 .386 0 .632-.012-2.297 2.865-2.11 8.071-2.102 8.305.022.537.462.967 1.01.99.039 0 .2.007.46.007.407 0 1.06-.017 1.832-.085a5.892 5.892 0 0 0-.756.61c-2.767 2.707-2.556 8.553-2.546 8.8.022.537.462.968 1.01.99.039 0 .2.007.46.007.17 0 .386 0 .632-.01-1.719 2.143-2.048 5.59-2.1 7.293-.02 0-.035-.011-.055-.011-.02 0-.036.01-.056.011-.052-1.702-.381-5.15-2.1-7.294.246.008.462.011.633.011.258 0 .422-.006.459-.007a1.044 1.044 0 0 0 1.01-.99c.01-.247.221-6.09-2.546-8.8a5.892 5.892 0 0 0-.756-.61c.773.068 1.425.085 1.833.085.258 0 .422-.006.459-.007a1.044 1.044 0 0 0 1.01-.99c.01-.234.195-5.44-2.102-8.305.246.008.462.012.633.012.258 0 .422-.007.459-.008a1.044 1.044 0 0 0 1.01-.99c.01-.247.221-6.09-2.546-8.8-2.767-2.711-8.733-2.5-8.991-2.492a1.044 1.044 0 0 0-1.01.99c-.01.234-.195 5.441 2.103 8.306-.62-.02-1.03-.007-1.093-.005a1.044 1.044 0 0 0-1.01.99c-.01.247-.222 6.09 2.545 8.8.233.224.485.427.752.609-.76-.07-1.524-.095-2.287-.077a1.044 1.044 0 0 0-1.01.99c-.01.234-.195 5.44 2.101 8.305a13.15 13.15 0 0 0-1.091 0 1.044 1.044 0 0 0-1.01.99c-.01.248-.222 6.09 2.545 8.8 2.356 2.307 7.042 2.499 8.533 2.499.258 0 .422-.006.459-.007h.009v6.242c0 .57.472 1.032 1.055 1.032.582 0 1.054-.462 1.054-1.032V52.59h.01c.038 0 .2.008.458.008 1.491 0 6.177-.192 8.533-2.498 2.767-2.708 2.556-8.554 2.545-8.801a1.044 1.044 0 0 0-1.01-.99c-.063 0-.472-.016-1.091 0 2.296-2.865 2.109-8.072 2.101-8.305a1.044 1.044 0 0 0-1.01-.99 19.733 19.733 0 0 0-2.288.077c.268-.182.52-.385.753-.608 2.767-2.708 2.556-8.554 2.545-8.801a1.044 1.044 0 0 0-1.01-.99c-.063 0-.473-.016-1.092.005 2.297-2.859 2.112-8.066 2.102-8.3zm-16.691 2.96c1.44 1.411 1.856 4.434 1.926 6.266-1.87-.07-4.957-.475-6.4-1.884-1.442-1.41-1.855-4.434-1.925-6.265 1.87.07 4.96.475 6.399 1.884zm-6.399 7.407c1.87.07 4.956.475 6.399 1.884 1.443 1.41 1.856 4.434 1.926 6.265-1.87-.07-4.957-.475-6.4-1.884-1.442-1.409-1.855-4.433-1.925-6.265zm6.399 12.207c1.44 1.41 1.856 4.439 1.926 6.265-1.87-.07-4.957-.475-6.4-1.884-1.442-1.41-1.855-4.439-1.925-6.265 1.87.07 4.96.475 6.399 1.884zM4.091 48.642c-1.44-1.41-1.856-4.439-1.926-6.265 1.87.07 4.956.475 6.399 1.884 1.443 1.41 1.856 4.439 1.926 6.265-1.87-.07-4.96-.475-6.4-1.884zm17.128 0c-1.44 1.41-4.53 1.815-6.4 1.884.07-1.831.486-4.852 1.926-6.265 1.44-1.413 4.53-1.815 6.4-1.884-.07 1.832-.486 4.855-1.926 6.265zm0-9.29c-1.44 1.409-4.53 1.814-6.4 1.884.07-1.832.486-4.852 1.926-6.265 1.44-1.413 4.53-1.815 6.4-1.884-.07 1.831-.486 4.855-1.926 6.265zm-4.474-23.994c1.44-1.41 4.53-1.815 6.4-1.884-.07 1.831-.486 4.852-1.926 6.265-1.441 1.413-4.53 1.815-6.4 1.884.07-1.832.486-4.855 1.926-6.265zm4.474 13.671c-1.44 1.41-4.53 1.815-6.4 1.884.07-1.831.486-4.852 1.926-6.265 1.44-1.413 4.53-1.814 6.4-1.884-.07 1.832-.486 4.855-1.926 6.265zM12.655 60.903c-.583 0-1.055.462-1.055 1.032v1.033c0 .57.472 1.032 1.055 1.032.582 0 1.054-.462 1.054-1.032v-1.033c0-.57-.472-1.032-1.054-1.032z"/>
        <path d="M12.655 14.452c.582 0 1.054-.463 1.054-1.033V1.032C13.71.462 13.237 0 12.655 0 12.072 0 11.6.462 11.6 1.032V13.42c0 .57.472 1.033 1.055 1.033zM6.327 11.355c.583 0 1.055-.462 1.055-1.032V5.16c0-.57-.472-1.032-1.055-1.032-.582 0-1.054.462-1.054 1.032v5.162c0 .57.472 1.032 1.054 1.032zM18.982 11.355c.582 0 1.054-.462 1.054-1.032V5.16c0-.57-.472-1.032-1.054-1.032-.583 0-1.055.462-1.055 1.032v5.162c0 .57.472 1.032 1.055 1.032zM57.946 21.688a1.044 1.044 0 0 0-1.01-.99c-.062 0-.472-.016-1.093.005 2.298-2.865 2.11-8.072 2.103-8.306a1.044 1.044 0 0 0-1.01-.99c-.254-.008-6.222-.214-8.991 2.491-2.77 2.706-2.556 8.554-2.546 8.801.022.537.462.968 1.01.99.038 0 .2.008.46.008.17 0 .386 0 .632-.012-2.297 2.865-2.11 8.071-2.102 8.305.022.537.462.967 1.01.99.038 0 .2.007.46.007.407 0 1.054-.017 1.832-.085a5.892 5.892 0 0 0-.756.61c-2.767 2.707-2.556 8.553-2.546 8.8.022.537.462.968 1.01.99.038 0 .2.007.46.007.17 0 .386 0 .632-.01-1.719 2.143-2.048 5.59-2.1 7.293-.02 0-.036-.011-.056-.011-.02 0-.035.01-.055.011-.052-1.702-.381-5.15-2.1-7.294.246.008.462.011.633.011.258 0 .422-.006.458-.007a1.044 1.044 0 0 0 1.01-.99c.011-.247.222-6.09-2.545-8.8a5.892 5.892 0 0 0-.756-.61c.773.068 1.425.085 1.833.085.258 0 .422-.006.458-.007a1.044 1.044 0 0 0 1.01-.99c.01-.234.196-5.44-2.101-8.305.246.008.462.012.633.012.258 0 .422-.007.458-.008a1.044 1.044 0 0 0 1.01-.99c.011-.247.222-6.09-2.545-8.8-2.767-2.711-8.73-2.5-8.991-2.492a1.044 1.044 0 0 0-1.01.99c-.01.234-.196 5.441 2.102 8.306-.619-.02-1.029-.007-1.092-.005a1.044 1.044 0 0 0-1.01.99c-.01.247-.222 6.09 2.545 8.8.233.224.485.427.752.609-.76-.07-1.524-.095-2.287-.077a1.044 1.044 0 0 0-1.01.99c-.01.234-.195 5.44 2.101 8.305a13.158 13.158 0 0 0-1.091 0 1.044 1.044 0 0 0-1.01.99c-.01.248-.222 6.09 2.545 8.8 2.356 2.307 7.042 2.499 8.533 2.499.258 0 .422-.006.458-.007h.01v6.242c0 .57.472 1.032 1.054 1.032.583 0 1.055-.462 1.055-1.032V52.59h.01c.037 0 .2.008.458.008 1.491 0 6.177-.192 8.533-2.498 2.767-2.708 2.556-8.554 2.545-8.801a1.044 1.044 0 0 0-1.01-.99c-.062 0-.472-.017-1.091 0 2.296-2.865 2.109-8.072 2.101-8.305a1.044 1.044 0 0 0-1.01-.99 19.74 19.74 0 0 0-2.288.077c.268-.182.52-.385.753-.608 2.767-2.702 2.556-8.548 2.545-8.795zm-16.691-6.33c1.44 1.41 1.856 4.433 1.925 6.265-1.87-.07-4.956-.475-6.399-1.884-1.442-1.41-1.856-4.434-1.925-6.265 1.87.07 4.96.475 6.399 1.884zm-6.4 7.406c1.87.07 4.957.475 6.4 1.884 1.442 1.41 1.856 4.434 1.925 6.265-1.87-.07-4.956-.475-6.399-1.884-1.442-1.409-1.856-4.433-1.925-6.265zm6.4 12.207c1.44 1.41 1.856 4.439 1.925 6.265-1.87-.07-4.956-.475-6.399-1.884-1.442-1.41-1.856-4.439-1.925-6.265 1.87.07 4.96.475 6.399 1.884zM36.78 48.642c-1.44-1.41-1.856-4.439-1.925-6.265 1.87.07 4.956.475 6.399 1.884 1.442 1.41 1.856 4.439 1.925 6.265-1.87-.07-4.96-.475-6.399-1.884zm17.128 0c-1.439 1.41-4.534 1.815-6.399 1.884.07-1.831.486-4.852 1.926-6.265 1.44-1.413 4.535-1.815 6.399-1.884-.07 1.832-.485 4.855-1.926 6.265zm0-9.29c-1.439 1.409-4.534 1.814-6.399 1.884.07-1.832.486-4.852 1.926-6.265 1.44-1.413 4.535-1.815 6.399-1.884-.07 1.831-.485 4.855-1.926 6.265zm-4.473-23.994c1.44-1.41 4.535-1.815 6.399-1.884-.07 1.831-.485 4.852-1.926 6.265-1.44 1.413-4.534 1.815-6.399 1.884.07-1.832.486-4.855 1.926-6.265zm0 9.29c1.44-1.409 4.535-1.814 6.399-1.884-.07 1.832-.485 4.852-1.926 6.265-1.44 1.413-4.534 1.815-6.399 1.884.07-1.831.486-4.855 1.926-6.265zM45.345 60.903c-.582 0-1.054.462-1.054 1.032v1.033c0 .57.472 1.032 1.054 1.032.583 0 1.055-.462 1.055-1.032v-1.033c0-.57-.472-1.032-1.055-1.032z"/>
        <path d="M45.345 14.452c.583 0 1.055-.463 1.055-1.033V1.032C46.4.462 45.928 0 45.345 0c-.582 0-1.054.462-1.054 1.032V13.42c0 .57.472 1.033 1.054 1.033zM39.018 11.355c.583 0 1.055-.462 1.055-1.032V5.16c0-.57-.472-1.032-1.055-1.032-.582 0-1.054.462-1.054 1.032v5.162c0 .57.472 1.032 1.054 1.032zM51.673 11.355c.582 0 1.054-.462 1.054-1.032V5.16c0-.57-.472-1.032-1.054-1.032-.583 0-1.055.462-1.055 1.032v5.162c0 .57.472 1.032 1.055 1.032z"/>
    </g>
</svg>
