<svg xmlns="http://www.w3.org/2000/svg" width="64" height="64" viewBox="0 0 64 64">
    <g fill="#000" fill-rule="nonzero">
        <path d="M23.266 9.34l1.282 1.703a12.96 12.96 0 0 1 1.916-1.196l-.968-1.896c-.782.397-1.529.862-2.23 1.388zM18.841 15.253a13.303 13.303 0 0 0-.745 4.4h2.129c-.001-1.259.211-2.509.627-3.698a10.103 10.103 0 0 1 2.15-3.524l-1.56-1.447a12.208 12.208 0 0 0-2.601 4.269zM38.57 9.587l-1.032 1.861a10.343 10.343 0 0 1 4.907 8.585 9.67 9.67 0 0 1-.232 2.096l2.079.462c.186-.839.28-1.695.282-2.555A12.383 12.383 0 0 0 38.57 9.587zM36.191 21.296h2.13v2.13h-2.13zM30.869 25.554h2.129v2.129h-2.129z"/>
        <path d="M38.538 62.29a16.31 16.31 0 0 0 7.108 1.591 18.615 18.615 0 0 0 5.69-.91L59.61 60.3c.324-.106.578-.36.684-.684l2.671-8.272a17.229 17.229 0 0 0-.682-12.803 17.292 17.292 0 0 0-14.817-9.768 17.229 17.229 0 0 0-7.16-24.614L32.419.125a1.062 1.062 0 0 0-.969 0l-7.885 4.034a17.063 17.063 0 0 0-9.726 15.498c.02 9.728 7.91 17.604 17.638 17.606h.068a17.028 17.028 0 0 0-1.67 3.249l1.99.757c.6-1.58 1.463-3.048 2.555-4.34.038-.036.073-.075.106-.116.247-.301.51-.589.786-.862l.628-.628a15.03 15.03 0 0 1 25 15.365l-2.5 7.757-7.752 2.504a14.69 14.69 0 0 1-15.367-3.512l-1.506 1.505a17.417 17.417 0 0 0 4.724 3.348zm-4.1-28.472l-.628.627c-.233.233-.426.446-.616.656-.265.015-.532.033-.803.033h-.915a15.482 15.482 0 0 1-14.644-20.586 15.333 15.333 0 0 1 7.698-8.493l7.403-3.788 7.406 3.789a15.19 15.19 0 0 1 5.502 22.81 17.299 17.299 0 0 0-10.403 4.952z"/>
        <path d="M44.323 59.138a9.625 9.625 0 0 0 6.85-2.837l5.12-5.121a9.686 9.686 0 0 0-8.95-16.307l-9.547 2.122c-.404.09-.72.405-.808.81l-2.122 9.545a9.688 9.688 0 0 0 9.457 11.788zM36.945 47.81l1.973-8.885 8.886-1.974a7.557 7.557 0 0 1 6.984 12.723l-5.12 5.12a7.558 7.558 0 0 1-12.723-6.984z"/>
        <path d="M40.76 42.273l1.506-1.505 8.516 8.516-1.506 1.506zM0 51.96c.12 6.684 5.625 12.011 12.31 11.914h9.443c6.685.097 12.189-5.23 12.31-11.914a11.773 11.773 0 0 0-5.716-10.062l-10.76-6.607a1.065 1.065 0 0 0-1.112 0l-10.76 6.607A11.773 11.773 0 0 0 0 51.96zm6.83-8.247l10.201-6.264 10.202 6.264a9.656 9.656 0 0 1 4.7 8.247c-.12 5.508-4.671 9.883-10.18 9.785H12.31C6.8 61.843 2.25 57.468 2.13 51.96a9.656 9.656 0 0 1 4.7-8.247z"/>
        <path d="M8.763 45.271l1.808-1.11 1.115 1.815-1.809 1.11zM5.535 55.579l1.847-1.064a5.16 5.16 0 0 1 1.064-6.442l-1.43-1.578a7.37 7.37 0 0 0-2.448 5.464 7.29 7.29 0 0 0 .967 3.62zM15.967 41.52h2.129v17.032h-2.13z"/>
    </g>
</svg>
