<svg xmlns="http://www.w3.org/2000/svg" width="56" height="64" viewBox="0 0 56 64">
    <g fill="#000" fill-rule="nonzero">
        <path d="M13.06 12.646l-.755.752c-.125.124-3.09 3.092-6.1 7.435C2.117 26.735.044 32.088.044 36.743c0 7.125 5.823 12.922 12.98 12.922 7.158 0 12.982-5.797 12.982-12.922V35.55c0-8.629-11.729-21.572-12.228-22.119l-.718-.786zm10.91 22.905v1.191c0 6.009-4.91 10.897-10.945 10.897S2.08 42.75 2.08 36.742c0-8.641 8.338-18.334 10.916-21.124a82.376 82.376 0 0 1 5.186 6.683c3.786 5.47 5.788 10.052 5.788 13.25z"/>
        <path d="M4.829 39.124h2.036c0-5.26 1.843-9.292 3.39-11.749 1.689-2.683 3.405-4.133 3.423-4.147l-1.305-1.556c-.308.256-7.544 6.386-7.544 17.452zM15.418 39.301h2.393v2.027h-2.393zM17.81 36.919h2.393v2.027H17.81zM15.418 34.537h2.393v2.027h-2.393zM30.005 23.161c.482.444.938.863 1.357 1.28.42.418.84.872 1.286 1.352 2.096 2.258 4.472 4.817 7.892 4.817s5.795-2.56 7.891-4.817c.446-.48.867-.934 1.286-1.351.42-.418.875-.837 1.358-1.28 2.268-2.087 4.838-4.453 4.838-7.857 0-3.405-2.57-5.77-4.838-7.856-.483-.444-.938-.863-1.358-1.28-.42-.419-.84-.872-1.286-1.352C46.335 2.56 43.96 0 40.54 0c-3.42 0-5.796 2.56-7.892 4.817-.445.48-.866.933-1.286 1.351-.42.418-.875.837-1.357 1.28-2.268 2.087-4.839 4.453-4.839 7.857s2.571 5.77 4.84 7.856zm1.382-14.224c.475-.438.967-.89 1.415-1.336.447-.446.902-.935 1.341-1.408 1.902-2.048 3.868-4.166 6.397-4.166 2.529 0 4.495 2.118 6.396 4.166.44.473.894.963 1.342 1.408.448.446.94.898 1.415 1.336 2.057 1.893 4.185 3.85 4.185 6.368 0 2.518-2.128 4.475-4.185 6.368-.475.437-.967.89-1.415 1.336-.448.445-.902.935-1.341 1.408-1.902 2.048-3.868 4.166-6.397 4.166-2.53 0-4.495-2.117-6.397-4.166-.439-.473-.893-.963-1.341-1.408-.448-.446-.94-.898-1.415-1.336-2.057-1.893-4.185-3.85-4.185-6.368 0-2.518 2.127-4.475 4.185-6.368z"/>
        <path d="M42.933 19.055h2.393v2.027h-2.393zM45.324 16.674h2.393v2.027h-2.393zM42.933 14.292h2.393v2.027h-2.393zM34.558 11.91h2.393v2.027h-2.393zM52.611 39.014c-5.066-5.03-14.062-4.272-20.053 1.692-5.99 5.964-6.753 14.92-1.697 19.966C33.112 62.908 36.14 64 39.335 64c3.995 0 8.25-1.707 11.579-5.02 5.99-5.964 6.753-14.92 1.697-19.966zm-3.137 18.532C44.276 62.721 36.571 63.48 32.3 59.24c-4.262-4.254-3.5-11.925 1.698-17.1 2.936-2.922 6.672-4.436 10.137-4.436 2.67 0 5.179.899 7.037 2.744 4.262 4.254 3.5 11.925-1.698 17.1z"/>
        <path d="M36.534 55.022l-1.44 1.433c1.087 1.081 2.569 1.647 4.261 1.647a8.29 8.29 0 0 0 1.35-.114c2.125-.351 4.25-1.492 5.984-3.212l-1.436-1.435c-2.875 2.851-6.786 3.605-8.719 1.68zM46.938 44.664l1.44-1.433c-1.367-1.36-3.36-1.905-5.61-1.534-2.126.352-4.251 1.492-5.985 3.212l1.437 1.436c2.874-2.851 6.785-3.605 8.718-1.68zM48.624 53.086l-1.686-1.68 1.44-1.432 1.686 1.679zM33.407 48.034l1.44-1.433 1.686 1.68-1.44 1.432zM43.306 49.969l-1.439 1.433-1.699-1.691 1.44-1.433z"/>
    </g>
</svg>
