<svg xmlns="http://www.w3.org/2000/svg" width="56" height="64" viewBox="0 0 56 64">
    <g fill="#000" fill-rule="nonzero">
        <path d="M55.056 27.052l-.475-1.889-1.77 1.422c-.635-1.753-1.3-2.81-1.604-3.242l-.34-.48-.586-.044c-.393-.028-1.254-.053-2.488.1l.78-2.37-2.182.527c-.608.147-1.278.337-1.997.573l.002-.01C44.674 7.366 38.623 1.03 37.933.354c-.013-.012-.03-.015-.044-.026-.015-.014-.021-.032-.036-.044-.083-.069-.18-.1-.272-.144-.046-.021-.083-.055-.132-.071a1.247 1.247 0 0 0-.516-.064l-.006-.001c-.964.098-9.677 1.287-18.503 12.675-.5.766-.965 1.563-1.415 2.374-4.005-2.854-7.072-3.588-7.974-3.745a1.25 1.25 0 0 0-1.027.28c-.46.39-3.147 2.83-5.284 8.08-.029.06-.05.116-.07.18C1.391 23.006.331 27.157.063 32.474a39.725 39.725 0 0 0 1.442 9.33 39.831 39.831 0 0 0 3.609 8.845c3.6 5.383 6.883 6.723 9.56 6.723 1.594 0 2.972-.476 4.075-.854.58-.2 3.094-.9 3.501-.994 1.246 2.516 3.397 3.555 4.962 4.308.552.266 3.22 1.775 3.733 2.11C32.28 62.82 34.077 64 36.56 64c2.36 0 5.34-1.065 9.129-4.471a39.93 39.93 0 0 0 5.622-7.612 39.76 39.76 0 0 0 3.743-8.789c1.493-7.351.824-12.798.001-16.076zm-8.14-1.473c1.138-.232 2.01-.29 2.566-.298.328.565.812 1.54 1.254 2.971l-6.392 5.139 2.572-7.812zM33.946 3.326c-.995 1.478-1.986 3.156-3.054 5.169a1.24 1.24 0 0 0 .522 1.678 1.254 1.254 0 0 0 1.69-.52c1.413-2.665 2.68-4.711 3.995-6.454 1.696 2.226 5 7.91 4.8 18.29-.04.388-.09.779-.144 1.166l-.1.046a31.078 31.078 0 0 0-1.693.811l-.395.205c-1.273.671-2.54 1.44-3.797 2.306l-.246.17c-.289.202-.577.408-.864.62-.12.088-.24.18-.361.27-.266.2-.53.402-.796.61-.17.135-.341.277-.513.416-.222.181-.446.359-.67.546-.398.337-.8.685-1.206 1.049a37.81 37.81 0 0 0-1.55 1.745 40.045 40.045 0 0 0-2.898 3.946l-.004.003a41.37 41.37 0 0 0-1.17 1.917c-.05.088-.095.183-.146.27a40.302 40.302 0 0 0-1.226 2.36l-.028.06-.037.08h-.002l-.001.005c-.044.09-.084.183-.127.274.987-7.99 2.792-15.489 5.393-22.315a1.24 1.24 0 0 0-.726-1.602 1.253 1.253 0 0 0-1.613.721c-2.754 7.229-4.637 15.183-5.625 23.655-.225-.068-.44-.138-.681-.205-2.753-.759-6.177-1.705-6.02-9.993a37.229 37.229 0 0 1 1.968-8.636 38.564 38.564 0 0 1 1.937-4.519c.004-.006.002-.013.006-.02a35.46 35.46 0 0 1 1.901-3.337c5.239-6.758 10.306-9.595 13.48-10.787zM21.479 53.147c-.478.119-2.739.742-3.55 1.021-2.7.933-6.057 2.093-10.677-4.809a37.298 37.298 0 0 1-3.334-8.213c-.808-2.916-1.263-5.86-1.355-8.649.236-4.628 1.096-8.266 2.14-11.08a29.015 29.015 0 0 0 5.578-.792 1.24 1.24 0 0 0 .914-1.503 1.25 1.25 0 0 0-1.513-.908 26.48 26.48 0 0 1-3.883.64c1.316-2.666 2.683-4.255 3.395-4.968 1.137.292 3.587 1.132 6.675 3.396-.037.078-.069.158-.105.238a40.098 40.098 0 0 0-1.503 3.647 39.79 39.79 0 0 0-2.103 9.31c-.201 10.314 4.836 11.705 7.845 12.536.592.164 2.354.908 2.397.908l.053-.003c-.024.069-.044.14-.067.208a31.998 31.998 0 0 0-.613 1.88 2.682 2.682 0 0 0-.025.099 27.652 27.652 0 0 0-.316 1.894c-.028.207-.04.398-.06.598-.04.394-.08.785-.097 1.15-.01.195-.009.381-.011.571a13.246 13.246 0 0 0 .041 1.493c.036.459.093.891.169 1.296l.005.04zM52.627 42.54a37.273 37.273 0 0 1-3.488 8.148c-1.504 2.63-3.279 5.032-5.2 7.068-6.264 5.627-9.23 3.678-11.616 2.113-.716-.471-3.247-1.902-4.022-2.275-1.524-.734-3.263-1.585-4.088-3.842-.006-.023 0-.044-.009-.067-.6-1.733-.605-4.098-.016-7.03a35.903 35.903 0 0 1 1.08-3.103 39.86 39.86 0 0 1 1.141-2.61l.001-.006.002-.001c.393-.823.811-1.622 1.25-2.387l.003-.002a38.907 38.907 0 0 1 2.307-3.56c.004-.004.009-.008.011-.013.003-.003.003-.006.005-.01a35.93 35.93 0 0 1 2.876-3.484c.519-.466 1.03-.9 1.538-1.315.149-.122.298-.24.447-.358a42.83 42.83 0 0 1 1.56-1.19c.387-.281.769-.546 1.146-.798.113-.076.225-.155.338-.23a34.98 34.98 0 0 1 2.874-1.697c.186-.098.372-.185.56-.278.262-.13.526-.266.78-.384.314-.146.63-.282.946-.415a27.981 27.981 0 0 1 1.704-.667L39.34 40.613l13.698-11.012c.514 3.069.705 7.433-.41 12.939z"/>
        <path d="M36.532 31.841c-.388.231-9.5 5.802-10.069 17.05a1.245 1.245 0 0 0 1.186 1.302l.063.001c.662 0 1.215-.515 1.249-1.18.5-9.894 8.779-14.993 8.862-15.044.59-.354.779-1.118.422-1.705a1.251 1.251 0 0 0-1.713-.424z"/>
    </g>
</svg>
