<svg xmlns="http://www.w3.org/2000/svg" width="63" height="64" viewBox="0 0 63 64">
    <g fill="#000" fill-rule="nonzero">
        <path d="M18.375 39.354l-2.013-.249a17.86 17.86 0 0 0 .001 4.321l2.012-.25a15.776 15.776 0 0 1 0-3.822zM57.488 51.444c-.57 0-1.132.092-1.672.273l-.461.154a11.49 11.49 0 0 1-6.376.256c.032-.013.063-.021.095-.034l1.471-.633a5.307 5.307 0 0 0 3.207-4.882c0-2.93-2.374-5.313-5.39-5.313-.57 0-1.133.092-1.673.273l-.46.154a11.486 11.486 0 0 1-7.265-.001l-.446-.149a5.348 5.348 0 0 0-1.7-.277c-2.965 0-5.376 2.42-5.376 5.437a5.373 5.373 0 0 0 2.974 4.829l.275.137c.385.194.78.367 1.18.53a11.477 11.477 0 0 1-6.033-.327l-.445-.149a5.342 5.342 0 0 0-1.701-.278c-2.966 0-5.377 2.42-5.377 5.437a5.373 5.373 0 0 0 2.974 4.829l.275.137a17.124 17.124 0 0 0 7.646 1.812c2.329 0 4.595-.467 6.736-1.387l1.471-.634a5.23 5.23 0 0 0 1.08-.629c.318.267.662.508 1.045.7l.275.138a17.132 17.132 0 0 0 7.647 1.812c2.328 0 4.595-.467 6.735-1.387l1.472-.634a5.307 5.307 0 0 0 3.207-4.881c0-2.93-2.374-5.313-5.39-5.313zM41.214 59.43a3.325 3.325 0 0 1-.595.339l-1.471.633c-4.03 1.731-8.758 1.59-12.678-.376l-.275-.137c-1.142-.574-1.852-1.726-1.852-3.047a3.358 3.358 0 0 1 3.349-3.36c.36 0 .718.057 1.06.172l.445.149c2.762.924 5.786.923 8.544 0l.462-.153c.333-.112.68-.169 1.13-.169.725 0 1.419.241 1.983.676a5.43 5.43 0 0 0-.748 2.725c0 .913.236 1.78.646 2.548zm-5.619-9.583l-.273-.137c-1.142-.574-1.852-1.726-1.852-3.047a3.358 3.358 0 0 1 3.348-3.36c.361 0 .718.057 1.058.171l.447.149c2.763.924 5.787.923 8.545 0l.461-.153c.334-.11.68-.168 1.131-.168a3.274 3.274 0 0 1 3.263 3.277 3.274 3.274 0 0 1-1.978 3.01l-1.472.634c-4.027 1.73-8.757 1.592-12.678-.376zm23.277 9.922L57.4 60.4c-4.029 1.731-8.757 1.59-12.678-.376l-.275-.137c-1.14-.574-1.85-1.726-1.85-3.047a3.358 3.358 0 0 1 3.348-3.36c.361 0 .718.057 1.058.171l.447.149c2.762.924 5.786.923 8.545 0l.461-.153c.334-.11.68-.168 1.13-.168a3.274 3.274 0 0 1 3.264 3.277 3.274 3.274 0 0 1-1.978 3.01z"/>
        <path d="M53.627 56.417a15.67 15.67 0 0 1-3.807 0l-.25 2.02a17.452 17.452 0 0 0 4.306 0l-.25-2.02zM44.5 46.238a15.67 15.67 0 0 1-3.807 0l-.25 2.02a17.452 17.452 0 0 0 4.307 0l-.25-2.02zM35.373 56.417a15.67 15.67 0 0 1-3.807 0l-.249 2.02a17.452 17.452 0 0 0 4.306 0l-.25-2.02zM22.904 44.911a11.538 11.538 0 0 1-.59-3.646c0-1.241.199-2.468.59-3.645l.15-.449a5.39 5.39 0 0 0-2.171-6.214l.05-.007a41.413 41.413 0 0 0-4.797-14.546 26.512 26.512 0 0 0-.875-3.666L18.722 0l-8.41 2.814-2.05 8.232-.635.319C2.925 13.723.005 18.465.005 23.74c0 3.235 1.098 6.3 3.116 8.766a13.309 13.309 0 0 0-3.116 8.55 13.33 13.33 0 0 0 4.065 9.558c.084 5.79 4.033 10.72 9.67 12.025l5.367 1.244.506-3.554c.404-2.834.737-5.715.995-8.567a5.38 5.38 0 0 0 2.721-4.71 5.31 5.31 0 0 0-.272-1.68l-.153-.46zm-6.79-19.522c.204-1.155.321-2.32.369-3.489a39.33 39.33 0 0 1 2.27 8.253 5.446 5.446 0 0 0-.84-.084c-.995 0-1.94.273-2.754.762l.956-5.442zm-1.917 35.265a10.421 10.421 0 0 1-7.92-8.261l1.25.898 1.18-1.656-1.979-1.42a11.293 11.293 0 0 1-4.695-9.158c0-2.574.887-5.055 2.488-7.051l.852.855 1.434-1.44-1.33-1.335a11.75 11.75 0 0 1-3.444-8.346c0-4.499 2.49-8.543 6.5-10.554l1.47-.74 2.006-8.054 3.759-1.257-2.624 9.659.097.292a24.548 24.548 0 0 1 .877 11.948l-1.197 6.808a49.493 49.493 0 0 0-.747 8.554v.685c0 6.898 1.489 13.799 4.293 20.1l-2.27-.527zm3.542-1.661a47.67 47.67 0 0 1-2.307-7.232c.78.444 1.669.702 2.605.702.159 0 .308-.033.463-.047a164.96 164.96 0 0 1-.76 6.577zm3.241-13.438l.154.46c.11.335.167.684.167 1.135a3.274 3.274 0 0 1-3.263 3.276 3.259 3.259 0 0 1-3-1.984l-.362-.85a46.978 46.978 0 0 1-.474-6.51v-.686c0-1.87.12-3.747.343-5.609l.063-.15c.055-.135.107-.268.171-.397l.14-.278c.57-1.146 1.717-1.858 3.033-1.858a3.358 3.358 0 0 1 3.177 4.424l-.149.448a13.573 13.573 0 0 0-.693 4.29c0 1.461.233 2.903.693 4.289z"/>
    </g>
</svg>
