<svg xmlns="http://www.w3.org/2000/svg" width="64" height="64" viewBox="0 0 64 64">
    <g fill="#000" fill-rule="nonzero">
        <path d="M62.75 25.813H52.5v-2.646c0-.69-.56-1.25-1.25-1.25h-27a1.25 1.25 0 0 0 0 2.5H50V34c0 8.418-4.495 16.243-11.752 20.5H14.252C6.995 50.243 2.5 42.418 2.5 34v-9.583h8.375a1.25 1.25 0 0 0 0-2.5H1.25c-.69 0-1.25.56-1.25 1.25V34c0 4.725 1.27 9.358 3.673 13.398A26.39 26.39 0 0 0 9.858 54.5H1.25c-.69 0-1.25.56-1.25 1.25C0 60.3 3.7 64 8.25 64h39c4.55 0 8.25-3.7 8.25-8.25 0-.69-.56-1.25-1.25-1.25H42.642a26.401 26.401 0 0 0 5.788-6.458h3.528C58.598 48.042 64 42.64 64 36v-8.938c0-.69-.56-1.25-1.25-1.25zM52.863 57a5.76 5.76 0 0 1-5.613 4.5h-39A5.76 5.76 0 0 1 2.637 57h50.226zM52.5 34v-.688h4V36a4.547 4.547 0 0 1-4.542 4.542h-.283c.545-2.126.825-4.324.825-6.542zm9 2c0 5.261-4.28 9.542-9.542 9.542h-2.127a26.1 26.1 0 0 0 1.067-2.5h1.06A7.05 7.05 0 0 0 59 36v-3.938c0-.69-.56-1.25-1.25-1.25H52.5v-2.5h9V36zM27.444 6.918l-.65-.817a3.258 3.258 0 0 1-.004-4.074A1.25 1.25 0 1 0 24.832.473a5.747 5.747 0 0 0 .006 7.186l.65.817a4.258 4.258 0 0 1 .005 5.324l-.667.84a1.25 1.25 0 1 0 1.958 1.554l.667-.84a6.747 6.747 0 0 0-.007-8.436zM34.372 9.728l-.65-.816a3.258 3.258 0 0 1-.004-4.074 1.25 1.25 0 1 0-1.958-1.554 5.747 5.747 0 0 0 .006 7.186l.65.816a4.259 4.259 0 0 1 .005 5.324l-.666.84a1.25 1.25 0 1 0 1.958 1.554l.666-.84a6.747 6.747 0 0 0-.007-8.436zM20.515 9.729l-.65-.817a3.259 3.259 0 0 1-.004-4.074 1.25 1.25 0 1 0-1.958-1.554 5.748 5.748 0 0 0 .006 7.186l.65.816a4.259 4.259 0 0 1 .005 5.324l-.666.84a1.25 1.25 0 1 0 1.957 1.554l.667-.84a6.747 6.747 0 0 0-.007-8.436z"/>
        <path d="M18.785 22.282a1.26 1.26 0 0 0-.884-.366 1.26 1.26 0 0 0-.884.366 1.262 1.262 0 0 0-.366.884c0 .329.134.651.366.885.233.233.556.365.884.365.329 0 .651-.132.884-.365a1.255 1.255 0 0 0 0-1.769zM45.25 32.75c-.69 0-1.25.56-1.25 1.25 0 4.64-1.882 9.2-5.163 12.51a1.25 1.25 0 1 0 1.775 1.76C44.354 44.495 46.5 39.294 46.5 34c0-.69-.56-1.25-1.25-1.25zM36.736 49.903a1.25 1.25 0 0 0-1.703-.474l-.029.016a1.25 1.25 0 0 0 1.229 2.177l.028-.016a1.25 1.25 0 0 0 .475-1.703z"/>
    </g>
</svg>
