<svg xmlns="http://www.w3.org/2000/svg" xmlns:xlink="http://www.w3.org/1999/xlink" width="455" height="580" viewBox="0 0 455 580">
    <defs>
        <path id="a" d="M65.92 21.374l-1.352 2.278s-13.364-8.237-19.776-11.634C38.379 8.62 23.162 3.667 8.71 13.75L.005 3.49c24.186-7.784 36.25.432 46.139 6.25L65.92 21.373"/>
        <linearGradient id="b" x1="70.973%" x2="17.146%" y1="48.212%" y2="50.07%">
            <stop offset="0%" stop-color="#AEB3BE"/>
            <stop offset="100%" stop-color="#FDFDFD"/>
        </linearGradient>
    </defs>
    <g fill="none" fill-rule="evenodd">
        <path stroke="#6C717F" stroke-width=".873" d="M102.075 245.807l45.068 26.103c4.037 2.339 5.432 7.563 3.1 11.61l-40.081 69.568c-2.332 4.048-7.543 5.447-11.58 3.108l-45.068-26.103c-4.037-2.338-5.432-7.563-3.1-11.61l40.082-69.568c2.332-4.048 7.542-5.446 11.58-3.108zM382.82 401.588l45.067 26.104c4.038 2.338 5.433 7.563 3.101 11.61l-40.081 69.568c-2.332 4.047-7.543 5.446-11.58 3.107l-45.068-26.103c-4.037-2.338-5.432-7.563-3.1-11.61l40.081-69.567c2.332-4.048 7.543-5.447 11.58-3.109z"/>
        <path fill="#AFB3BF" d="M303.547 415.628l-.603 1.332 2.661 1.209.603-1.334-2.66-1.207zm53.827 49.956l-2.161-1.422.802-1.224 2.161 1.423-.802 1.223zm-3.382-2.226l.802-1.223-2.442-1.608-.802 1.223 2.442 1.608zm-3.664-2.411l.803-1.223-2.442-1.608-.802 1.223 2.441 1.608zm-3.662-2.411l.802-1.224-2.442-1.607-.802 1.223 2.442 1.608zm-3.663-2.412l.802-1.223-2.442-1.607-.802 1.223 2.442 1.607zm-3.663-2.411l.802-1.223-2.442-1.607-.802 1.223 2.442 1.607zm-3.663-2.411l.802-1.223-2.442-1.607-.802 1.223 2.442 1.607zm-3.663-2.411l.802-1.223-2.442-1.608-.802 1.223 2.442 1.608zm-3.663-2.411l.802-1.223-2.442-1.608-.802 1.223 2.442 1.608zm-3.663-2.411l.802-1.223-2.442-1.608-.802 1.223 2.442 1.608zm-3.663-2.412l.802-1.222-2.442-1.608-.802 1.223 2.442 1.607zm-3.663-2.41l.802-1.223-2.442-1.608-.802 1.223 2.442 1.607zm-3.663-2.412l.802-1.223-2.442-1.607-.802 1.223 2.442 1.607zm-3.663-2.41l.802-1.223-2.442-1.608-.802 1.223 2.442 1.607zm-3.663-2.412l.802-1.223-2.443-1.607-.802 1.223 2.443 1.607zm-3.663-2.41l.802-1.224-2.442-1.607-.802 1.223 2.442 1.607zm-3.663-2.412l.802-1.223-2.442-1.607-.802 1.223 2.442 1.607zm-3.664-2.411l.803-1.223-2.442-1.608-.802 1.224 2.441 1.607zm-3.662-2.411l.802-1.223-2.442-1.607-.802 1.223 2.442 1.607zm-3.663-2.41l.802-1.224-2.442-1.607-.802 1.224 2.442 1.606zm-3.663-2.411l.802-1.223-2.441-1.607-.802 1.223 2.441 1.607zm-3.662-2.41l.802-1.224-2.442-1.606-.801 1.222 2.441 1.608zm-3.662-2.41l.802-1.224-2.442-1.607-.802 1.223 2.442 1.607zm-3.662-2.411l.802-1.223-2.442-1.607-.802 1.222 2.442 1.608zm-3.663-2.411l.802-1.223-2.441-1.607-.803 1.223 2.442 1.607zm-3.662-2.41l.802-1.223-2.442-1.607-.802 1.223 2.442 1.607zm-3.663-2.41l.802-1.223-2.44-1.608-.803 1.223 2.441 1.607zm-3.662-2.411l.802-1.223-2.441-1.607-.803 1.223 2.442 1.607zm-3.662-2.41l.802-1.224-2.442-1.607-.802 1.224 1.068.703-.907 1.126 2.273 1.838.918-1.138-2.154-1.741 1.244.818zm-3.507-2.648l.647-.986-2.442-1.607-.802 1.223 1.05.692-.638.792 2.274 1.838.917-1.14-1.006-.812zm-3.426-2.77l.38-.58 1.18.537.603-1.334-1.196-.542.294-.826-2.75-.986-.493 1.378 1.186.425-.176.391-1.06-.696-.801 1.223 1.033.68-.369.458 2.273 1.837.918-1.138-1.022-.827zm-5.967-4.227l-.529.806 1.016.669-.1.123 2.274 1.838.862-1.07.012.006.021-.047.022-.028-.007-.006.567-1.253-1.21-.549.174-.486-2.751-.985-.186.52-.117-.094.099-.218-.838-.38-.348-.28.015-.041-.117-.042-.965-.78-.165.206-1.118-.736-.268.408-.118-.043-.175.49-.24.368.088.058-.165.462 1.158.415-.008.02 1.218.554.15.098.015-.024.271.124.714.576.149-.185.143.066.252-.556.366-.454-.161.45zm-5.951-4.513l-1.1-.724-.802 1.223.305.2-.353-.126-.492 1.378 2.75.985.067-.187 1.128.512.481-1.064.725-.9-2.274-1.838-.435.54zm-3.052-.414l.457-.696.976.79.917-1.14-2.273-1.837-.705.875-1.082-.713-.803 1.223 1.749 1.151-.73-.332-.287.633-1.244-.446-.492 1.378 2.752.986.188-.527 1.14.518.604-1.333-1.167-.53zm-3.733-2.301l.763-1.164.992.802.918-1.138-2.274-1.838-.917 1.138.717.58-1.839-1.21-.802 1.222 2.442 1.608zm-3.663-2.41l.803-1.224-2.442-1.607-.802 1.223 2.441 1.607zm-3.662-2.411l.802-1.223-2.441-1.607-.802 1.223 2.44 1.607zm-3.662-2.41l.802-1.223-2.442-1.608-.802 1.223 2.442 1.607zm-3.662-2.411l.802-1.223-2.442-1.607-.802 1.223 2.442 1.607zm-3.663-2.41l.802-1.223-2.442-1.608-.802 1.224 2.442 1.607zm-3.662-2.41l.802-1.224-2.442-1.607-.802 1.223 2.442 1.607zm-3.662-2.411l.801-1.223-2.441-1.607-.802 1.223 2.442 1.607zm-3.663-2.41l.802-1.223-2.441-1.608-.802 1.223 2.441 1.607zm-3.662-2.411l.802-1.223-2.442-1.607-.802 1.223 2.442 1.607zm-3.662-2.41l.802-1.224-2.442-1.607-.802 1.224 2.442 1.606zm-3.663-2.41l.802-1.224-2.441-1.607-.803 1.223 2.442 1.607zm-3.662-2.411l.802-1.223-2.442-1.607-.802 1.222 2.442 1.608zm-3.663-2.41l.803-1.224-2.442-1.607-.802 1.223 2.441 1.607zm189.93 85.455l-1.805-.648.493-1.378 1.805.648-.493 1.378zm-3.18-1.141l.492-1.378-2.751-.986-.492 1.377 2.75.987zm-4.127-1.48l.492-1.378-2.751-.986-.492 1.378 2.751.986zm-4.127-1.48l.492-1.377-2.75-.987-.493 1.378 2.751.986zm-4.126-1.479l.492-1.378-2.752-.986-.492 1.378 2.752.986zm-4.127-1.479l.492-1.378-2.751-.986-.492 1.378 2.75.986zm-4.127-1.48l.492-1.377-2.751-.986-.492 1.377 2.75.987zm-4.127-1.478l.492-1.378-2.751-.987-.492 1.378 2.751.987zm-4.127-1.48l.492-1.377-2.75-.986-.493 1.377 2.751.987zm-4.127-1.479l.493-1.377-2.752-.987-.492 1.378 2.751.986zm-4.126-1.479l.492-1.377-2.751-.987-.493 1.378 2.752.986zm-4.128-1.479l.493-1.378-2.751-.986-.493 1.378 2.751.986zm-4.126-1.48l.492-1.377-2.751-.986-.493 1.378 2.752.986zm-4.127-1.478l.492-1.378-2.751-.986-.492 1.378 2.75.986zm-4.127-1.479l.492-1.378-2.75-.986-.493 1.378 2.75.986zm-4.126-1.479l.492-1.378-2.75-.986-.493 1.378 2.751.986zm-4.126-1.479l.492-1.377-2.75-.986-.493 1.378 2.75.985zm-4.127-1.479l.493-1.378-2.751-.985-.492 1.378 2.75.985zm-4.125-1.478l.492-1.378-2.751-.986-.492 1.378 2.75.986zm-4.127-1.479l.492-1.378-2.75-.986-.492 1.378 2.75.986zm-4.125-1.479l.492-1.378-2.752-.986-.492 1.378 2.752.986zm-4.127-1.479l.492-1.377-2.75-.987-.492 1.378 2.75.986zm-4.126-1.479l.492-1.378-2.75-.985-.493 1.378 2.751.985zm-4.126-1.478l.492-1.378-2.751-.986-.492 1.378 2.751.986zm-4.126-1.48l.492-1.377-2.75-.986-.493 1.378 2.75.986zm-4.127-1.478l.493-1.378-2.751-.986-.492 1.378 2.75.986zm-4.125-1.479l.492-1.378-2.751-.986-.493 1.378 2.752.986zm-4.127-1.479l.492-1.377-2.75-.986-.492 1.378 2.75.985zm-4.126-1.479l.493-1.377-2.752-.986-.492 1.378 1.215.435-.604 1.333 2.662 1.208.603-1.333-2.657-1.207 1.532.55zm-4.05-1.691l.416-1.165-2.75-.986-.493 1.378 1.2.43-.454 1.005 2.661 1.208.604-1.333-1.184-.537zm-24.833-8.66l.31-.867 1.154.524.603-1.332-2.66-1.209-.436.96-1.23-.44-.492 1.378 2.751.986zm-4.126-1.479l.43-1.206 1.168.53.603-1.332-2.66-1.209-.584 1.289-1.216-.435-.492 1.377 2.75.986zm-4.126-1.479l.492-1.378-2.75-.986-.493 1.378 2.751.986zm-4.126-1.478l.492-1.378-2.751-.986-.492 1.378 2.75.986zm-4.127-1.48l.493-1.377-2.751-.986-.492 1.378 2.75.985zm-4.125-1.478l.492-1.378-2.751-.986-.492 1.378 2.75.986zm-4.127-1.479l.492-1.378-2.75-.986-.492 1.378 2.75.986zm-4.126-1.479l.492-1.378-2.75-.985-.493 1.377 2.751.986zm-4.126-1.479l.492-1.377-2.75-.987-.492 1.378 2.75.986zm-4.126-1.478l.492-1.378-2.75-.986-.493 1.378 2.75.986zm-4.126-1.48l.492-1.377-2.75-.986-.493 1.378 2.751.986zm-4.126-1.478l.492-1.378-2.751-.986-.492 1.378 2.75.986zm-4.127-1.479l.493-1.378-2.751-.985-.492 1.377 2.75.986zm-4.125-1.479l.492-1.378-2.751-.986-.493 1.378 2.752.986zm-45.578-68.26l.725.586-.918 1.139-.724-.586.917-1.14zm1.862 1.505l-.917 1.139 2.274 1.838.917-1.139-2.274-1.838zm3.412 2.758l-.918 1.138 2.274 1.839.918-1.139-2.274-1.838zm3.41 2.757l-.916 1.14 2.274 1.837.917-1.139-2.274-1.838zm3.412 2.758l-.917 1.138 2.274 1.839.918-1.139-2.275-1.838zm3.412 2.757l-.918 1.139 2.275 1.838.917-1.138-2.274-1.839zm3.411 2.757l-.917 1.14 2.274 1.837.918-1.139-2.275-1.838zm3.411 2.758l-.917 1.138 2.273 1.838.918-1.138-2.274-1.838zm3.41 2.756l-.917 1.14 2.275 1.837.917-1.139-2.274-1.838zm3.411 2.757l-.917 1.139 2.274 1.838.918-1.139-2.275-1.838zm3.412 2.757l-.918 1.138 2.274 1.839.917-1.14-2.273-1.837zm3.41 2.756l-.918 1.14 2.275 1.837.917-1.138-2.274-1.839zm3.41 2.757l-.917 1.139 2.275 1.838.917-1.139-2.274-1.838zm3.412 2.757l-.918 1.139 2.274 1.838.917-1.139-2.273-1.838zm3.41 2.757l-.917 1.138 2.274 1.838.917-1.138-2.274-1.838zm3.411 2.757l-.917 1.139 2.274 1.838.917-1.14-2.274-1.837zm3.41 2.757l-.916 1.138 2.273 1.838.918-1.139-2.274-1.837zm3.411 2.756l-.917 1.139 2.274 1.838.917-1.139-2.274-1.838zm3.411 2.757l-.917 1.139 2.274 1.838.917-1.139-2.274-1.838zm3.41 2.757l-.916 1.138 2.273 1.838.918-1.138-2.274-1.838zm3.412 2.757l-.918 1.138 2.274 1.838.917-1.138-2.273-1.838zm3.41 2.757l-.917 1.138 2.274 1.838.917-1.138-2.274-1.838zm3.41 2.756l-.916 1.14 2.273 1.836.918-1.138-2.274-1.838zm3.412 2.757l-.918 1.138 2.275 1.838.917-1.139-2.274-1.837zm3.41 2.756l-.917 1.139 2.274 1.837.918-1.138-2.275-1.838zm3.411 2.756l-.917 1.14 2.274 1.837.917-1.139-2.274-1.838zm3.411 2.757l-.918 1.139 2.274 1.837.917-1.138-2.273-1.838zm3.41 2.756l-.917 1.14 2.273 1.837.918-1.14-2.274-1.837zm3.41 2.757l-.917 1.138 2.274 1.838.917-1.138-2.274-1.838zm3.411 2.756l-.917 1.14 2.273 1.837.918-1.14-2.274-1.837zm30.694 24.808l-.918 1.139 2.273 1.838.918-1.14-2.273-1.837zm3.41 2.757l-.918 1.138 2.274 1.838.917-1.139-2.273-1.837zm3.41 2.756l-.917 1.139 2.273 1.837.918-1.138-2.274-1.838zm3.41 2.757l-.917 1.138 2.274 1.838.917-1.139-2.273-1.837zm3.41 2.756l-.916 1.139 2.273 1.837.918-1.138-2.274-1.838zm3.412 2.756l-.918 1.14 2.274 1.837.917-1.139-2.273-1.838zm3.41 2.757l-.918 1.139 2.274 1.837.917-1.138-2.273-1.838zm3.41 2.756l-.917 1.14 2.273 1.836.918-1.138-2.274-1.838zm3.41 2.757l-.917 1.138 2.274 1.838.917-1.139-2.273-1.837zm3.41 2.756l-.917 1.139 2.274 1.837.918-1.138-2.274-1.838zm3.411 2.757l-.917 1.138 2.274 1.838.917-1.139-2.274-1.837zm3.41 2.756l-.917 1.139 2.274 1.837.917-1.138-2.273-1.838zM108.854 327.243l1.762.8-.604 1.333-1.761-.8.603-1.333zm3.092 1.404l-.603 1.333 2.661 1.209.604-1.333-2.662-1.21zm3.992 1.813l-.603 1.333 2.662 1.208.603-1.333-2.662-1.208zm3.993 1.812l-.603 1.333 2.66 1.209.604-1.333-2.661-1.209zm3.992 1.813l-.603 1.333 2.661 1.209.603-1.333-2.661-1.209zm3.992 1.813l-.603 1.333 2.662 1.208.602-1.333-2.66-1.208zm3.993 1.813l-.604 1.332 2.662 1.21.603-1.334-2.661-1.208zm3.992 1.813l-.604 1.333 2.662 1.208.603-1.333-2.661-1.208zm3.992 1.812l-.604 1.333 2.662 1.209.603-1.333-2.661-1.209zm3.992 1.813l-.603 1.333 2.661 1.208.604-1.333-2.662-1.208zm3.992 1.812l-.603 1.333 2.661 1.208.604-1.333-2.662-1.208zm3.993 1.812l-.604 1.333 2.662 1.208.603-1.333-2.661-1.208zm3.991 1.812l-.602 1.333 2.661 1.208.603-1.332-2.662-1.209zm3.993 1.812l-.604 1.333 2.662 1.209.603-1.333-2.661-1.209zm3.991 1.813l-.603 1.332 2.661 1.209.604-1.333-2.662-1.208zm3.992 1.812l-.604 1.332 2.662 1.209.603-1.333-2.661-1.208zm3.991 1.812l-.603 1.332 2.661 1.209.603-1.333-2.66-1.208zm3.992 1.812l-.603 1.332 2.66 1.209.604-1.333-2.661-1.208zm3.992 1.812l-.604 1.333 2.661 1.208.603-1.333-2.66-1.208zm3.991 1.812l-.603 1.333 2.66 1.208.604-1.333-2.66-1.208zm3.991 1.812l-.603 1.333 2.661 1.208.604-1.333-2.662-1.208zm3.992 1.812l-.603 1.333 2.66 1.208.604-1.333-2.661-1.208zm3.991 1.812l-.602 1.333 2.66 1.208.604-1.333-2.662-1.208zm3.992 1.812l-.603 1.333 2.661 1.208.603-1.333-2.661-1.208zm3.992 1.812l-.604 1.333 2.662 1.208.603-1.333-2.661-1.208zm3.991 1.812l-.603 1.333 2.661 1.208.604-1.333-2.662-1.208zm3.992 1.812l-.604 1.333 2.662 1.208.603-1.333-2.661-1.208zm3.991 1.812l-.603 1.333 2.661 1.208.603-1.332-2.66-1.209zm3.992 1.812l-.603 1.333 2.661 1.208.603-1.332-2.661-1.209zm39.915 18.12l-.603 1.334 2.661 1.208.603-1.333-2.66-1.208zm3.992 1.812l-.603 1.334 2.661 1.207.603-1.332-2.661-1.209zm3.992 1.812l-.604 1.333 2.661 1.208.603-1.333-2.66-1.208zm3.991 1.812l-.603 1.333 2.66 1.208.604-1.333-2.66-1.208zm3.992 1.812l-.604 1.333 2.661 1.208.604-1.334-2.661-1.207zm3.99 1.812l-.602 1.333 2.66 1.207.604-1.333-2.661-1.207zm3.992 1.811l-.602 1.333 2.66 1.208.604-1.333-2.662-1.208zm3.992 1.812l-.603 1.333 2.661 1.207.603-1.333-2.661-1.207zm3.992 1.811l-.604 1.334 2.662 1.208.603-1.333-2.661-1.209zm3.991 1.812l-.603 1.333 2.661 1.208.604-1.333-2.662-1.208zm3.992 1.812l-.604 1.333 2.662 1.208.603-1.333-2.661-1.208z"/>
        <path fill="#AFB3BF" d="M347.487 5.541h14.296v91.811l3.68 2.72h48.828v62.135l-4.98-.008-33.853 58.51 1.983 1.167c.039.023 11.882 7.008 15.842 9.303l-.141.243c-5.065 8.749-32.573 56.264-37.198 64.291l-4.972-2.864-1.167 2.009c-.088.151-30.704 52.733-31.61 54.649-.504 1.065-.964 2.196-1.283 3.25-.305 1.005-.498 2.003-.513 2.914a276.89 276.89 0 0 0-.033 2.229v3.034l10.608-2.837 118.96 68.537 4.055 14.6-47.527 81.985-39.772 15.237-5.433 9.39v17.85h2.336c.834 0 1.595.341 2.147.893.552.55.896 1.31.896 2.143v5.727H233.459v4.66h133.848v-10.387a7.67 7.67 0 0 0-2.264-5.439 7.76 7.76 0 0 0-3.115-1.898v-12.322l3.981-6.881 39.77-15.236c16.452-28.353 32.886-56.717 49.321-85.08l-5.088-18.32a323244.06 323244.06 0 0 1-122.285-70.452l-6.44 1.722c.052-.225.118-.467.195-.721.26-.863.629-1.77 1.028-2.614.688-1.453 24.653-42.66 30.259-52.295l2.081 1.2h.01c.546.313 1.272.583 2.127.477.937-.118 1.84-.608 2.488-1.796.332-.607 32.294-55.816 37.799-65.324.294-.509.582-1.034.886-1.535.403-.762 1.34-3.018-1.386-4.458-.632-.334-10.56-6.178-14.88-8.722l30.193-52.184c1.125.006 2.68.015 3.53.015 1.073 0 1.761-.127 2.477-.77l-.004-.004c.792-.711.972-1.433.972-2.57V99.053c0-3.843-3.524-3.644-3.534-3.644H366.98l-.526-.388V.88h-18.967v4.661zM78.12 574.46h-21.9v-5.727c0-.833.343-1.592.895-2.143a3.035 3.035 0 0 1 2.148-.894v-2.33H61.3v-14.302c-.019-.07-.09-.291-.09-.348-.628-2.325-39.384-145.961-40.131-150.282-.082-.476-.208-1.13-.322-1.729v-.008c-.525-2.744-.81-4.238.863-7.13l13.967-24.14-2.014-1.162c-.077-.045-24.464-14.082-28.911-16.648-.005-4.061-.025-21.982-.019-23.61l7.761-13.59-.833-1.675 40.334-69.426 1.379.622 1.055-1.822c.029-.05 9.09-15.774 10.625-18.388 2.678-.037 18.533.062 21.894.084l132.933 76.629 1.291 4.476 1.89-.146c.004 0 1.59-.13 2.303-.264l.002.008.06-.02c.642-.129 6.36-1.28 9.053-5.748 1.318-2.188 10.617-18.104 18.297-31.338 5.21-8.98 9.712-16.79 10.539-18.362a10.954 10.954 0 0 1 3.046-3.622c1.172-.889 2.442-1.442 3.624-1.569 1.296-.14 2.705-.26 3.912-.362 1.293-.11 2.344-.2 3.17-.32l.118-.018c1.811-.263 7.3-1.065 10.31-6.165 2.455-4.157 27.699-47.787 27.771-47.913l2.016-3.486H245.56c-2.034-7.888-10.181-42.335-10.181-88.024 0-45.732 8.627-80.194 10.762-88.026h14.606V.881H242.64l-.494 1.684c-.032.11-11.437 38.271-11.437 91.002 0 52.718 10.789 90.862 10.82 90.973l.475 1.712h67.125c-6.027 10.414-23.611 40.791-25.735 44.39-1.872 3.17-5.707 3.725-6.963 3.907l-.127.017c-.636.093-1.642.179-2.879.285-1.078.091-2.343.199-4.02.379-2.014.216-4.093 1.096-5.942 2.498a15.647 15.647 0 0 0-4.36 5.17c-.726 1.381-5.212 9.158-10.447 18.18-7.72 13.305-16.994 29.179-18.262 31.283-1.562 2.594-5.204 3.423-5.894 3.566l-.74-2.57a956049.043 956049.043 0 0 0-135.626-78.182l-.628-.003c-.065 0-22.74-.212-23.855.015-1.673.342-1.916.79-2.395 1.675l-.026.052v.008l-9.868 17.04-1.373-.618c-14.57 25.074-29.143 50.147-43.703 75.225l.844 1.7-6.607 11.564c-.116.2-.223.42-.307.659l.005.001a3.818 3.818 0 0 0-.192.792c-.045.344-.024 20.202-.019 24.389l.001.762H0c0 .579.153 1.123.436 1.61l.004-.002c.282.487.675.883 1.159 1.17l.003-.007 27.62 15.92-11.633 20.108c-2.547 4.4-2.147 6.49-1.412 10.334.086.44.175.907.303 1.647.771 4.456 38.198 143.195 40.148 150.423v11.859a7.753 7.753 0 0 0-2.816 1.795 7.668 7.668 0 0 0-2.264 5.439v10.388H78.12v-4.661z"/>
        <path fill="#6C717F" d="M123.913 278.195l-18.048-14.33c-1.39-1.105-3.45-.894-4.578.467l-10.796 13.032a3.15 3.15 0 0 0 .477 4.481l18.049 14.331c1.39 1.104 3.45.893 4.577-.468l2.449-2.955 4.593 12.65 14.896-17.983-13.59-1.788 2.448-2.956a3.15 3.15 0 0 0-.477-4.481M99.224 311.59l-20.854-9.425a3.216 3.216 0 0 0-4.241 1.597l-6.96 15.357a3.209 3.209 0 0 0 1.6 4.236l20.853 9.425a3.216 3.216 0 0 0 4.242-1.597l1.579-3.483 7.605 11.147 9.602-21.19-13.405 1.652 1.578-3.484a3.209 3.209 0 0 0-1.599-4.236M388.888 428.11l21.726 7.414c1.674.571 2.553 2.343 1.954 3.94l-5.733 15.277c-.598 1.595-2.457 2.434-4.13 1.863l-21.726-7.414c-1.674-.57-2.553-2.343-1.955-3.938l1.3-3.466-13.332 2.632 7.91-21.08 8.555 10.1 1.3-3.464c.599-1.596 2.458-2.434 4.131-1.863M376.303 463.082l19.167 12.52a3.19 3.19 0 0 1 .92 4.42l-9.287 14.05a3.232 3.232 0 0 1-4.447.915l-19.167-12.52a3.19 3.19 0 0 1-.92-4.42l2.106-3.187-13.524-.452 12.814-19.385 5.785 12.16 2.106-3.186a3.232 3.232 0 0 1 4.447-.915M258.743 0v71.718L274.247 93.4v7.815h2.924v-8.737l-15.505-21.68V0h-2.923zm55.618 101.214v-7.843c11.384-17.213 22.763-34.427 34.15-51.637V0h-2.923v40.868c-11.384 17.213-22.77 34.423-34.15 51.638v8.708h2.923z"/>
        <path fill="#AFB3BF" d="M318.588 133.778h-2.998l-5.803 13.202h2.998zM295.706 133.778h-2.998l-5.803 13.202h2.998z"/>
        <path fill="#6C717F" d="M293.188 143.681h-3.003l-5.812 13.008h-5.202l-5.785-18.51-22.564.026 10.169 32.539h52.855l7.382-14.055h-9.835l5.812-13.008h-3.002l-5.812 13.008h-21.016z"/>
        <path fill="#AFB3BF" d="M252.5 146.1l-2.558.845 2.723 9.717 2.557-.845z"/>
        <path fill="#6C717F" d="M391.32 140.82L254.342 372.721l2.154 8.374 2.972 1.757 140.087-237.167zM231.17 431.997V580h2.93V431.997h-2.93zM163.985 580v-62.635l53.203-92.578-2.541-1.449-53.594 93.257V580h2.932zM80.351 578.24c0-43.844 11.05-89.48 34.656-122.029 20.49-28.25 50.47-48.405 90.931-53.758l-.374-2.878c-41.338 5.469-71.968 26.064-92.905 54.93-23.986 33.07-35.212 79.318-35.212 123.735h2.904zM261.383 425.114l-13.477-7.894-7.34-.923-1.252 2.102 19.325 11.32 2.744-4.605zm-23.39-4.498l-1.252 2.102 4.356 5.928 13.477 7.894 2.744-4.604-19.325-11.32zM168.446 356.45l-2.991 9.62 2.289.94 2.991-9.62zM177.835 340.607l-6.22 8.957 2.58 1.604 6.22-8.956z"/>
        <path fill="#FFE73A" d="M319.732 399.518l-9.475 1.787 1.508-14.89 8.923 3.667z"/>
        <path fill="#FEFEFE" d="M315.886 398.34a3.958 3.958 0 0 1-3.526-4.342 3.95 3.95 0 0 1 4.324-3.54l-.798 7.883z"/>
        <path fill="#6C717F" d="M315.69 400.281l1.19-11.763 3.808 1.564-.956 9.436z"/>
        <path fill="#FFE73A" d="M286.775 452.918l-7.635-5.242 11.112-9.026 3.565 8.548z"/>
        <path fill="#FEFEFE" d="M284.965 449.506a3.79 3.79 0 0 1 5.883-4.779l-5.883 4.779z"/>
        <path fill="#6C717F" d="M283.518 450.682l8.778-7.131 1.52 3.647-7.041 5.72z"/>
        <path fill="#FFE73A" d="M185.824 326.492l3.565 8.741 11.112-9.23-7.635-5.361z"/>
        <path fill="#FEFEFE" d="M188.793 329.019a3.732 3.732 0 0 0 5.33.565c1.624-1.35 1.872-3.791.552-5.452l-5.882 4.887z"/>
        <path fill="#6C717F" d="M187.345 330.222l8.778-7.293-3.257-2.287-7.042 5.85z"/>
        <path fill="#FFE73A" d="M157.964 382.463l8.915 3.447 1.537-13.93-9.479 1.655z"/>
        <path fill="#FEFEFE" d="M161.968 382.119c2.166.211 4.106-1.27 4.33-3.306.225-2.036-1.35-3.858-3.517-4.07l-.813 7.376z"/>
        <path fill="#6C717F" d="M161.767 383.934l1.214-11.005-4.044.706-.973 8.829z"/>
        <path fill="#FFE73A" d="M173.375 350.443l2.146 2.486 6.655-10.405-3.072-1.037z"/>
        <path fill="#6C717F" d="M308.346 413.657l-3.84 9.403 2.322 1.159 3.84-9.403z"/>
        <path fill="#FFE73A" d="M167.215 366.822l2.427 1.949 3.733-12.05-2.947-.272z"/>
        <path fill="#6C717F" d="M300.52 429.5l-6.574 8.655 2.225 1.906 6.576-8.657z"/>
        <path fill="#FFE73A" d="M310.667 413.208l-2.639-2.191-5.281 11.768 3.373.553zM301.867 431.197l-1.93-2.578-7.751 9.275 3.008 1.287z"/>
        <path stroke="#6C717F" stroke-width="2.112" d="M346.505 105.615h-82.482v27.283h99.449z"/>
        <g transform="translate(194.497 408.376)">
            <mask id="c" fill="#fff">
                <use xlink:href="#a"/>
            </mask>
            <path fill="url(#b)" d="M65.92 21.374l-1.352 2.278s-13.364-8.237-19.776-11.634C38.379 8.62 23.162 3.667 8.71 13.75L.005 3.49c24.186-7.784 36.25.432 46.139 6.25L65.92 21.373" mask="url(#c)"/>
        </g>
        <path fill="#6C717F" d="M374.473 131.138a4.84 4.84 0 1 0 0 9.681 4.84 4.84 0 0 0 0-9.68"/>
        <path fill="#FCE41C" d="M377.113 150.5a4.84 4.84 0 1 0 .001 9.682 4.84 4.84 0 0 0-.001-9.681M365.672 169.863a4.841 4.841 0 1 0 .001 9.682 4.841 4.841 0 0 0-.001-9.682"/>
        <path fill="#6C717F" d="M352.47 189.226a4.84 4.84 0 1 0 .002 9.682 4.84 4.84 0 0 0-.001-9.682"/>
        <path fill="#FCE41C" d="M341.03 209.469a4.841 4.841 0 1 0 .001 9.682 4.841 4.841 0 0 0-.001-9.682M329.589 229.712a4.84 4.84 0 1 0 .001 9.681 4.84 4.84 0 0 0-.001-9.681"/>
        <path fill="#6C717F" d="M318.147 249.074a4.84 4.84 0 1 0 .002 9.682 4.84 4.84 0 0 0-.002-9.682"/>
        <path fill="#FCE41C" d="M306.707 268.437a4.84 4.84 0 1 0 .001 9.682 4.84 4.84 0 0 0-.001-9.682M295.266 288.68a4.84 4.84 0 1 0 0 9.681 4.84 4.84 0 0 0 0-9.681"/>
        <path fill="#6C717F" d="M282.945 308.923a4.84 4.84 0 1 0 0 9.68 4.84 4.84 0 0 0 0-9.68"/>
        <path fill="#FCE41C" d="M271.503 329.165a4.84 4.84 0 1 0 .002 9.682 4.84 4.84 0 0 0-.002-9.682M259.183 347.648a4.84 4.84 0 1 0 0 9.681 4.84 4.84 0 0 0 0-9.681"/>
        <path fill="#6C717F" d="M248.622 368.77a4.84 4.84 0 1 0 0 9.682 4.84 4.84 0 0 0 0-9.681"/>
        <path fill="#FCE41C" d="M236.3 388.134a4.841 4.841 0 1 0 .002 9.681 4.841 4.841 0 0 0-.001-9.681M217.82 430.38a4.84 4.84 0 1 0 0 9.68 4.84 4.84 0 0 0 0-9.68M211.658 453.263a4.84 4.84 0 1 0 .002 9.68 4.84 4.84 0 0 0-.002-9.68M206.378 474.385a4.84 4.84 0 1 0 .001 9.682 4.84 4.84 0 0 0 0-9.682M201.978 498.149a4.84 4.84 0 1 0 0 9.681 4.84 4.84 0 0 0 0-9.681M199.337 521.032a4.84 4.84 0 1 0 .001 9.681 4.84 4.84 0 0 0 0-9.681M199.337 544.795a4.84 4.84 0 1 0 .002 9.682 4.84 4.84 0 0 0-.002-9.682M199.338 569.439a4.84 4.84 0 1 0 0 9.68 4.84 4.84 0 0 0 0-9.68"/>
        <path fill="#6C717F" d="M203.738 411.017a4.841 4.841 0 1 0 .001 9.682 4.841 4.841 0 0 0-.001-9.682M179.096 425.099a4.84 4.84 0 1 0 0 9.68 4.84 4.84 0 0 0 0-9.68M160.614 443.581a4.84 4.84 0 1 0 0 9.682 4.84 4.84 0 0 0 0-9.682M148.293 464.704a4.84 4.84 0 1 0 0 9.68 4.84 4.84 0 0 0 0-9.68M138.612 490.228a4.84 4.84 0 1 0 0 9.681 4.84 4.84 0 0 0 0-9.681M128.931 515.751a4.84 4.84 0 1 0 .001 9.682 4.84 4.84 0 0 0 0-9.682M124.53 537.754a4.84 4.84 0 1 0 .002 9.682 4.84 4.84 0 0 0-.001-9.682M120.13 569.439a4.84 4.84 0 1 0 .002 9.681 4.84 4.84 0 0 0-.002-9.681"/>
        <path fill="#FCE41C" d="M350.71 121.457a4.84 4.84 0 1 0 0 9.68 4.84 4.84 0 0 0 0-9.68M335.75 121.457a4.84 4.84 0 1 0 0 9.68 4.84 4.84 0 0 0 0-9.68"/>
        <path fill="#6C717F" d="M319.908 121.457a4.84 4.84 0 1 0 0 9.68 4.84 4.84 0 0 0 0-9.68"/>
        <path fill="#FCE41C" d="M304.947 121.457a4.84 4.84 0 1 0 0 9.68 4.84 4.84 0 0 0 0-9.68"/>
        <path fill="#6C717F" d="M287.346 121.457a4.84 4.84 0 1 0 0 9.68 4.84 4.84 0 0 0 0-9.68"/>
        <path fill="#FCE41C" d="M271.504 121.457a4.84 4.84 0 1 0 0 9.681 4.84 4.84 0 0 0 0-9.681M280.305 110.015a4.84 4.84 0 1 0 0 9.681 4.84 4.84 0 0 0 0-9.68M295.266 110.015a4.84 4.84 0 1 0 0 9.682 4.84 4.84 0 0 0 0-9.682"/>
        <path fill="#6C717F" d="M311.108 110.015a4.84 4.84 0 1 0 0 9.681 4.84 4.84 0 0 0 0-9.68M285.585 91.533a4.84 4.84 0 1 0 0 9.68 4.84 4.84 0 0 0 0-9.68"/>
        <path fill="#FCE41C" d="M301.427 91.533a4.84 4.84 0 1 0 0 9.68 4.84 4.84 0 0 0 0-9.68M278.544 76.57a4.84 4.84 0 1 0 .001 9.682 4.84 4.84 0 0 0 0-9.681M294.386 76.57a4.84 4.84 0 1 0 0 9.682 4.84 4.84 0 0 0 0-9.681"/>
        <path fill="#6C717F" d="M309.347 76.57a4.84 4.84 0 1 0 0 9.682 4.84 4.84 0 0 0 0-9.681M285.585 63.369a4.84 4.84 0 1 0 0 9.681 4.84 4.84 0 0 0 0-9.681M285.585 34.325a4.84 4.84 0 1 0 0 9.68 4.84 4.84 0 0 0 0-9.68M285.585 7.041a4.84 4.84 0 1 0 0 9.681 4.84 4.84 0 0 0 0-9.681"/>
        <path fill="#FCE41C" d="M301.427 63.369a4.84 4.84 0 1 0 0 9.681 4.84 4.84 0 0 0 0-9.681M301.427 34.325a4.84 4.84 0 1 0 0 9.68 4.84 4.84 0 0 0 0-9.68M301.427 7.041a4.84 4.84 0 1 0 0 9.681 4.84 4.84 0 0 0 0-9.681M278.544 49.287a4.84 4.84 0 1 0 .002 9.682 4.84 4.84 0 0 0-.002-9.682M278.544 20.243a4.84 4.84 0 1 0 .001 9.681 4.84 4.84 0 0 0 0-9.681M294.386 49.287a4.84 4.84 0 1 0 0 9.681 4.84 4.84 0 0 0 0-9.681M294.386 20.243a4.84 4.84 0 1 0 0 9.68 4.84 4.84 0 0 0 0-9.68"/>
        <path fill="#6C717F" d="M309.347 49.287a4.84 4.84 0 1 0 .001 9.682 4.84 4.84 0 0 0 0-9.682M309.347 20.243a4.84 4.84 0 1 0 0 9.681 4.84 4.84 0 0 0 0-9.681"/>
        <path fill="#FCE41C" d="M318.148 63.369a4.84 4.84 0 1 0 0 9.68 4.84 4.84 0 0 0 0-9.68M326.069 50.167a4.84 4.84 0 1 0 0 9.681 4.84 4.84 0 0 0 0-9.681M326.069 21.123a4.84 4.84 0 1 0 0 9.681 4.84 4.84 0 0 0 0-9.681M318.148 34.325a4.84 4.84 0 1 0 0 9.68 4.84 4.84 0 0 0 0-9.68M318.148 7.041a4.84 4.84 0 1 0 0 9.681 4.84 4.84 0 0 0 0-9.681M333.99 34.325a4.84 4.84 0 1 0 0 9.68 4.84 4.84 0 0 0 0-9.68"/>
        <path fill="#6C717F" d="M333.99 7.041a4.84 4.84 0 1 0 0 9.681 4.84 4.84 0 0 0 0-9.681"/>
        <path fill="#FCE41C" d="M268.864 63.369a4.84 4.84 0 1 0 0 9.68 4.84 4.84 0 0 0 0-9.68M268.864 34.325a4.84 4.84 0 1 0 0 9.68 4.84 4.84 0 0 0 0-9.68M268.864 7.041a4.84 4.84 0 1 0 0 9.681 4.84 4.84 0 0 0 0-9.681"/>
    </g>
</svg>
