<svg xmlns="http://www.w3.org/2000/svg" width="38" height="64" viewBox="0 0 38 64">
    <path fill="#000" fill-rule="nonzero" d="M37.92 14.509L36.318 9.68c-.067-2.67-1.928-5.133-5.258-6.95C27.834.97 23.564 0 19.036 0c-4.528 0-8.798.97-12.024 2.73C3.682 4.55 1.82 7.013 1.753 9.682l-1.6 4.828a.872.872 0 0 0-.045.274v38.615c0 .034.002.067.006.1.12 2.863 2.146 5.505 5.736 7.465 3.537 1.93 8.22 2.993 13.186 2.993 4.967 0 9.65-1.063 13.185-2.993 3.591-1.96 5.617-4.602 5.737-7.465a.889.889 0 0 0 .006-.1V14.783a.872.872 0 0 0-.044-.274zM7.836 4.256c2.977-1.625 6.955-2.52 11.2-2.52 4.245 0 8.222.895 11.2 2.52 2.81 1.534 4.358 3.515 4.358 5.576 0 .685-.172 1.361-.503 2.015.044-.275.067-.553.067-.834 0-2.412-1.643-4.637-4.628-6.266-2.817-1.538-6.544-2.385-10.494-2.385s-7.677.847-10.495 2.385C5.557 6.376 3.914 8.6 3.914 11.013c0 .28.023.559.067.834a4.428 4.428 0 0 1-.504-2.015c0-2.061 1.548-4.042 4.359-5.576zm10.56 13.663c-6.978-.179-12.755-3.269-12.755-6.906 0-3.748 6.134-6.915 13.395-6.915 7.26 0 13.395 3.167 13.395 6.915 0 3.638-5.778 6.727-12.756 6.906-.212.005-.425.009-.64.009-.213 0-.426-.004-.639-.009zm13.001 41.519c-3.287 1.794-7.677 2.782-12.361 2.782-4.684 0-9.074-.988-12.361-2.782-2.46-1.342-4.047-2.996-4.61-4.762 1.107 1.271 2.657 2.412 4.584 3.349 3.424 1.664 7.823 2.581 12.387 2.581 5.172 0 9.991-1.14 13.57-3.209a.87.87 0 0 0 .317-1.185.862.862 0 0 0-1.179-.32c-3.272 1.893-7.904 2.978-12.708 2.978-4.308 0-8.44-.855-11.635-2.408-3.04-1.479-4.976-3.453-5.451-5.56a.864.864 0 0 0-.115-.274v-32.95c1.118 1.382 2.75 2.62 4.814 3.623 3.424 1.665 7.823 2.582 12.387 2.582 5.172 0 9.99-1.14 13.569-3.21a.87.87 0 0 0 .318-1.184.862.862 0 0 0-1.18-.32c-3.271 1.892-7.903 2.978-12.707 2.978-4.308 0-8.44-.856-11.635-2.409-2.93-1.425-4.835-3.311-5.394-5.333l.528-1.59c.848 1.557 2.368 2.967 4.477 4.118 3.226 1.76 7.496 2.73 12.024 2.73 4.528 0 8.798-.97 12.024-2.73 2.11-1.151 3.629-2.561 4.477-4.118l.526 1.587c-.217.79-.64 1.564-1.263 2.304a.871.871 0 0 0 .101 1.223.858.858 0 0 0 1.217-.102l.119-.144v32.945a.869.869 0 0 0-.115.275c-.196.867-.64 1.717-1.322 2.527a.871.871 0 0 0 .101 1.223.858.858 0 0 0 1.112.001c-.557 1.775-2.148 3.436-4.616 4.784zM21.581 14.69l6.619-.95a2.78 2.78 0 0 0 2.367-2.744A2.78 2.78 0 0 0 28.2 8.254l-6.619-.95a3.745 3.745 0 0 0-.53-.038c-2.044 0-3.707 1.674-3.707 3.731 0 2.058 1.663 3.732 3.707 3.732.176 0 .355-.013.53-.038zm-2.51-3.694a1.99 1.99 0 0 1 2.266-1.975l6.618.95c.504.073.885.513.885 1.025 0 .512-.38.952-.885 1.025l-6.618.95a1.99 1.99 0 0 1-2.266-1.975zm2.654.767V10.23c0-.48.387-.868.864-.868s.864.388.864.868v1.533c0 .48-.387.868-.864.868a.866.866 0 0 1-.864-.868z"/>
</svg>
