<svg xmlns="http://www.w3.org/2000/svg" width="720" height="719" viewBox="0 0 720 719">
    <path fill="currentColor" d="M487.721 139.212c-56.385-32.61-125.202-43.683-193.074-25.464-67.871 18.222-121.944 62.292-154.502 118.778-32.548 56.499-43.597 125.451-25.413 193.456 18.189 68.005 62.168 122.188 118.55 154.806 56.38 32.612 125.202 43.683 193.068 25.463 67.872-18.22 121.95-62.292 154.502-118.778 32.55-56.496 43.603-125.45 25.414-193.455-18.184-68.005-62.163-122.188-118.545-154.806zM266.851 12.334C362.85-13.354 460.19 2.257 539.952 48.25 619.72 94.234 681.927 170.612 707.65 266.479c25.722 95.863 10.09 193.071-35.963 272.725C625.634 618.86 549.15 680.98 453.155 706.666c-96 25.688-193.34 10.077-273.103-35.917C100.285 624.766 38.073 548.388 12.35 452.521-13.372 356.658 2.26 259.45 48.318 179.798 94.366 100.14 170.85 38.021 266.85 12.334zm114.24 157.682c62.67-16.723 127.084 20.308 143.878 82.712 16.79 62.399-20.4 126.539-83.073 143.258-62.66 16.717-127.074-20.308-143.863-82.712-16.795-62.402 20.398-126.539 83.058-143.258z"/>
</svg>
