<svg xmlns="http://www.w3.org/2000/svg" width="72" height="64" viewBox="0 0 72 64">
    <g fill="#000" fill-rule="nonzero">
        <path d="M9.844 33.119c-.776 0-1.406.629-1.406 1.403a1.405 1.405 0 0 0 2.812 0c0-.774-.63-1.403-1.406-1.403z"/>
        <path d="M72 38.031a6.3 6.3 0 0 0-2.355-4.91c1.829-1.475 2.63-3.757 2.27-5.965-.49-3.002-3.287-5.265-6.506-5.265H52.013l.417-1.249c2.383-7.134.17-14.758-5.076-19.217-2.93-2.523-7.928-1.682-9.464 2.492a1.4 1.4 0 0 0-.021.904c1.168 3.709 1.184 6.202.057 8.607-1.17 2.494-3.685 5.112-8.41 8.755-1.135.875-2.127 1.41-3.086 1.926-1.51.814-2.945 1.587-4.427 3.396h-5.128V26.1c0-.775-.63-1.403-1.406-1.403H1.406C.63 24.698 0 25.326 0 26.1v36.491c0 .776.63 1.404 1.406 1.404H15.47c.776 0 1.406-.628 1.406-1.404v-4.21h7.888a22.296 22.296 0 0 0 14.84 5.614h17.631a6.318 6.318 0 0 0 6.328-6.316 6.27 6.27 0 0 0-1.069-3.509h.366a6.318 6.318 0 0 0 6.328-6.315 6.275 6.275 0 0 0-1.346-3.889A6.316 6.316 0 0 0 72 38.031zM14.062 61.19H2.813V27.505h11.25v33.684zm51.61-19.65h-13.5a1.405 1.405 0 0 0 0 2.807h10.687a3.516 3.516 0 0 1 3.516 3.51 3.51 3.51 0 0 1-3.516 3.508H52.172a1.405 1.405 0 0 0 0 2.807h5.062a3.516 3.516 0 0 1 3.516 3.51 3.51 3.51 0 0 1-3.516 3.508H39.603c-4.978 0-9.714-1.86-13.336-5.236a1.408 1.408 0 0 0-.96-.378h-8.432V30.312h5.816c.447 0 .868-.212 1.133-.572 1.268-1.72 2.39-2.324 3.943-3.16 1.009-.544 2.152-1.16 3.468-2.175 9.628-7.422 11.831-11.97 9.472-19.919.933-1.789 3.258-2.272 4.91-.848 4.482 3.91 6.11 10.237 4.145 16.117l-.713 2.136H47.25a1.405 1.405 0 0 0 0 2.807h18.159c1.856 0 3.459 1.25 3.73 2.91a3.512 3.512 0 0 1-3.467 4.108h-13.5c-.777 0-1.406.628-1.406 1.403s.63 1.404 1.406 1.404h13.5a3.516 3.516 0 0 1 3.516 3.508 3.51 3.51 0 0 1-3.516 3.509z"/>
        <path d="M9.844 38.733c-.777 0-1.406.628-1.406 1.403v14.036c0 .775.63 1.403 1.406 1.403.776 0 1.406-.628 1.406-1.403V40.136c0-.775-.63-1.403-1.406-1.403z"/>
    </g>
</svg>
