<svg xmlns="http://www.w3.org/2000/svg" width="66" height="64" viewBox="0 0 66 64">
    <g fill="#000" fill-rule="nonzero">
        <path d="M45.742 18.508a.96.96 0 0 0-.028-.223l-.007-.028a.988.988 0 0 0-.04-.116l-.01-.023a.959.959 0 0 0-.122-.2l-.012-.018L33.526 3.276c-.007-.01-.016-.016-.023-.025a.941.941 0 0 0-.363-.256l-.03-.014-.035-.01a.933.933 0 0 0-.507-.02.914.914 0 0 0-.076.02l-.034.01-.03.014a1.002 1.002 0 0 0-.309.2.931.931 0 0 0-.054.056l-.023.025-4.975 6.064a.974.974 0 0 0 .129 1.365.958.958 0 0 0 1.355-.13l3.27-3.986v10.959h-8.99l1.955-2.383a.974.974 0 0 0-.13-1.365.958.958 0 0 0-1.355.13l-3.256 3.97c-.005.005-.008.012-.013.018a.955.955 0 0 0-.12.2c-.004.007-.009.015-.012.023a.972.972 0 0 0-.04.115l-.006.029a.981.981 0 0 0-.029.223v.032a.985.985 0 0 0 .01.117l5.86 40.398c.07.47.338.885.74 1.136l5.84 3.657.02.01.02.014c.016.009.031.015.046.022.017.008.033.017.05.024.024.01.048.018.073.026a.976.976 0 0 0 .132.034l.041.008a.962.962 0 0 0 .253 0l.042-.008c.028-.005.055-.01.083-.018.016-.004.032-.01.048-.016.025-.008.05-.016.073-.026.017-.007.033-.016.05-.024l.045-.022.02-.013.021-.011 5.841-3.657a1.61 1.61 0 0 0 .738-1.136l5.862-40.398a1.01 1.01 0 0 0 .01-.117v-.032zm-13.92 42.773l-4.242-2.656-5.68-39.138h9.921V61.28zm1.925-54.692l8.99 10.959h-8.99V6.589zm4.241 52.036l-4.241 2.656V19.487h9.92l-5.679 39.138zM53.368 60.183zM65.996 33.743c0-.009-.003-.017-.004-.026a.95.95 0 0 0-.054-.225l-.007-.022-4.966-12.43c-.004-.011-.01-.02-.015-.031a1.024 1.024 0 0 0-.159-.25.944.944 0 0 0-.105-.102l-.029-.026-.035-.022a.889.889 0 0 0-.184-.102.918.918 0 0 0-.366-.073l-.036-.002c-.012 0-.023.004-.035.004a.974.974 0 0 0-.42.134c-.01.006-.021.01-.03.016l-11.185 7.257-.018.013a.954.954 0 0 0-.175.154l-.018.019a.962.962 0 0 0-.073.097l-.015.026a1 1 0 0 0-.093.204.948.948 0 0 0-.037.145l-4.645 28.455c-.067.415.05.836.32 1.155l3.154 3.721c.006.008.013.014.02.02l.011.016.023.021a.858.858 0 0 0 .076.07l.037.028.047.031c.012.008.025.017.038.024.016.01.033.019.05.027l.04.02.054.021.04.015.057.016.039.01c.022.005.044.008.066.01l.033.006a.949.949 0 0 0 .1.006h.001a.947.947 0 0 0 .108-.007l.034-.005c.017-.003.033-.004.049-.008l.022-.006.024-.004 4.709-1.203c.404-.103.74-.379.923-.757l12.536-25.927a.972.972 0 0 0 .044-.109l.01-.031a1.026 1.026 0 0 0 .04-.22l.002-.03a.88.88 0 0 0-.003-.123zm-5.818-9.479l3.204 8.02-5.21-1.67 2.006-6.35zm-1.835-.588l-2.006 6.35-2.03-.65-3.18-1.018 7.216-4.682zm-11.236 35.57l-1.875-2.212 4.425-27.112 6.096 1.952-8.646 27.372zm4.634-.127l-2.8.715 8.647-27.372 2.645.848 3.451 1.105L51.741 59.12zM22.207 57.471l-1.74-9.533a.963.963 0 1 0-1.894.35l1.695 9.288-1.672 2.05-8.659-25.719 1.533-.523 4.126-1.408 1.892 10.369a.963.963 0 0 0 1.121.778.97.97 0 0 0 .773-1.129L17.29 30.531l-.002-.009a.988.988 0 0 0-.028-.113l-.012-.033a1.06 1.06 0 0 0-.096-.199.963.963 0 0 0-.09-.123l-.02-.02a.956.956 0 0 0-.176-.148c-.007-.004-.012-.01-.019-.013L6.092 23.18l-.03-.016a.892.892 0 0 0-.205-.088.944.944 0 0 0-.218-.037c-.012-.001-.023-.004-.035-.004l-.04.002a.904.904 0 0 0-.203.027.98.98 0 0 0-.266.109.962.962 0 0 0-.09.06l-.018.013-.016.015a.929.929 0 0 0-.2.232.906.906 0 0 0-.07.135c-.004.011-.01.02-.014.032L.19 35.559l-.007.023a.962.962 0 0 0-.05.224c0 .01-.002.02-.003.028a.98.98 0 0 0-.001.122l.003.03a.954.954 0 0 0 .044.22l.01.03c.014.037.029.073.046.108l12.37 24.405c.187.369.523.633.923.728l4.495 1.057.028.005.019.005.041.006c.01 0 .021.003.032.004a.958.958 0 0 0 .203 0l.034-.006a.897.897 0 0 0 .067-.01l.04-.011c.02-.006.04-.01.06-.018l.04-.015a.89.89 0 0 0 .055-.022l.039-.02a1 1 0 0 0 .052-.029c.013-.007.025-.016.037-.024.017-.01.033-.022.048-.033l.036-.03a1.023 1.023 0 0 0 .078-.071c.007-.008.016-.015.023-.024l.013-.016.018-.02 2.93-3.592c.26-.319.367-.735.293-1.142zm-8.11-27.03l-4.778 1.63-1.961-5.823 6.738 4.192zm-8.563-3.57l1.961 5.823-4.778 1.63 2.817-7.454zm8.672 32.775L2.455 36.462l5.658-1.932 8.66 25.72-2.567-.604zM48.487 5.936h-2.029V3.893a.966.966 0 0 0-.963-.97.966.966 0 0 0-.962.97v2.043h-2.03a.966.966 0 0 0-.962.97c0 .535.431.97.963.97h2.029v2.043c0 .535.43.97.962.97a.966.966 0 0 0 .963-.97V7.875h2.03a.966.966 0 0 0 .962-.97.966.966 0 0 0-.963-.969zM15.56 18.828h-2.03v-2.044a.966.966 0 0 0-.962-.97.966.966 0 0 0-.963.97v2.044h-2.03a.966.966 0 0 0-.962.969c0 .535.431.97.963.97h2.03v2.043c0 .535.43.97.962.97a.966.966 0 0 0 .963-.97v-2.044h2.029a.966.966 0 0 0 .962-.969.966.966 0 0 0-.962-.97zM53.55 14.047h-.534v-.537a.966.966 0 0 0-.962-.97.966.966 0 0 0-.963.97v.537h-.533a.966.966 0 0 0-.963.97c0 .535.431.969.963.969h.533v.537c0 .535.431.97.963.97a.966.966 0 0 0 .962-.97v-.537h.534a.966.966 0 0 0 .962-.97.966.966 0 0 0-.962-.97zM22.624 6.627h-.874v-.881a.966.966 0 0 0-.963-.97.966.966 0 0 0-.963.97v.88h-.874a.966.966 0 0 0-.963.97c0 .536.431.97.963.97h.874v.88c0 .536.431.97.963.97a.966.966 0 0 0 .963-.97v-.88h.874a.966.966 0 0 0 .963-.97.966.966 0 0 0-.963-.97zM8.392 1.64h-.534v-.536a.966.966 0 0 0-.962-.97.966.966 0 0 0-.963.97v.537H5.4a.966.966 0 0 0-.963.97c0 .535.431.969.963.969h.533v.537c0 .535.43.97.963.97a.966.966 0 0 0 .962-.97V3.58h.533a.966.966 0 0 0 .963-.97c0-.535-.43-.97-.962-.97zM61.676 1.64h-.662V.976a.966.966 0 0 0-.962-.97.966.966 0 0 0-.963.97v.666h-.662a.966.966 0 0 0-.962.97c0 .535.43.969.962.969h.662v.666c0 .535.43.969.963.969a.966.966 0 0 0 .962-.97V3.58h.662a.966.966 0 0 0 .962-.97.966.966 0 0 0-.962-.97z"/>
    </g>
</svg>
