<svg xmlns="http://www.w3.org/2000/svg" width="79" height="64" viewBox="0 0 79 64">
    <g fill="#000" fill-rule="nonzero">
        <path d="M36.301 13.919c-3.617 0-6.56 2.934-6.56 6.54v4.617c0 3.606 2.943 6.54 6.56 6.54 3.617 0 6.56-2.934 6.56-6.54v-4.617c0-3.606-2.943-6.54-6.56-6.54zm0 15.389a4.245 4.245 0 0 1-4.226-3.852A6.54 6.54 0 0 0 36.3 27a6.54 6.54 0 0 0 4.227-1.545 4.245 4.245 0 0 1-4.227 3.853zm0-4.617c-2.34 0-4.244-1.898-4.244-4.232a4.243 4.243 0 0 1 4.244-4.232 4.243 4.243 0 0 1 4.245 4.232c0 2.334-1.905 4.232-4.245 4.232z"/>
        <path d="M36.301 17.766c-.64 0-1.157.517-1.157 1.154v3.078c0 .638.518 1.154 1.157 1.154.64 0 1.158-.516 1.158-1.154V18.92c0-.637-.519-1.154-1.158-1.154zM57.137.07c-5.745 0-10.418 4.659-10.418 10.386v4.617c0 5.727 4.673 10.387 10.417 10.387 5.738 0 10.407-4.65 10.417-10.368l.001-.019v-4.617C67.554 4.73 62.881.07 57.137.07zm0 23.082a8.113 8.113 0 0 1-7.768-5.783 10.406 10.406 0 0 0 7.768 3.475c3.084 0 5.857-1.344 7.766-3.474a8.113 8.113 0 0 1-7.767 5.782zm0-4.616c-4.468 0-8.103-3.625-8.103-8.08 0-4.454 3.635-8.078 8.103-8.078s8.102 3.624 8.102 8.078c0 4.455-3.634 8.08-8.102 8.08z"/>
        <path d="M57.137 6.224c-.639 0-1.157.517-1.157 1.154l-.002 6.156c0 .638.519 1.155 1.158 1.155.64 0 1.157-.517 1.158-1.154V7.379c0-.638-.517-1.154-1.157-1.155zM78.333 39.125c-1.588-2.742-5.111-3.694-7.87-2.133-.501.247-6.905 3.384-12.182 5.599-.59.247-.866.924-.618 1.511.247.588.926.863 1.516.616 5.532-2.321 12.274-5.638 12.341-5.672.022-.01.044-.022.065-.034a3.484 3.484 0 0 1 4.744 1.268c1.108 1.911-.622 4.01-1.47 4.867-5.746 4.622-21.65 16.476-26.994 16.476-5.925 0-22.55-3.512-26.617-4.39V38.38c8.062-1.18 12.333.3 21.283 3.41 2.723.946 5.807 2.018 9.556 3.213.56.243 2.11 1.113 1.519 3.08-.36 1.196-1.517 2.337-3.213 2.02-2.28-.426-15.69-2.24-16.26-2.316a1.155 1.155 0 0 0-.31 2.287c.138.019 13.921 1.883 16.143 2.299.345.064.68.095 1.003.095 2.458 0 4.265-1.76 4.855-3.723.62-2.066-.025-4.682-2.86-5.879a.298.298 0 0 0-.012-.005l-.011-.005c-.016-.006-.032-.01-.047-.017l-.048-.017c-3.745-1.193-6.83-2.265-9.553-3.211-8.925-3.101-13.63-4.733-22.044-3.562v-.965c0-.637-.519-1.154-1.158-1.154h-3.472v-1.153c0-.638-.518-1.154-1.157-1.154H1.158c-.64 0-1.158.516-1.158 1.154V58.16c0 .638.518 1.154 1.158 1.154.639 0 1.157-.516 1.157-1.154V33.93h11.99v27.693H11.99v-1.154c0-.637-.519-1.154-1.158-1.154-.64 0-1.158.517-1.158 1.154v1.154H1.158c-.64 0-1.158.516-1.158 1.154 0 .637.518 1.154 1.158 1.154h14.304c.639 0 1.157-.517 1.157-1.154v-1.212h3.472c.64 0 1.157-.517 1.157-1.155v-.815c4.843 1.043 20.606 4.336 26.617 4.336 3.163 0 8.772-2.81 17.148-8.591a218.363 218.363 0 0 0 11.35-8.437c.032-.026.063-.053.092-.082 2.515-2.51 3.217-5.388 1.878-7.696zm-59.4 19.017v1.115H16.62V36.238h2.314v21.904z"/>
    </g>
</svg>
