<svg xmlns="http://www.w3.org/2000/svg" width="66" height="64" viewBox="0 0 66 64">
    <g fill="#000" fill-rule="nonzero">
        <path d="M60.5 0H14.3a5.51 5.51 0 0 0-5.5 5.505v42.942H1.1A1.1 1.1 0 0 0 0 49.548v2.203a5.51 5.51 0 0 0 5.5 5.505h34.126v5.505a1.101 1.101 0 0 0 1.76.88l3.74-2.807 3.74 2.808c.19.143.422.22.66.22.171.002.34-.036.493-.11a1.1 1.1 0 0 0 .607-.99v-5.506H51.7a5.51 5.51 0 0 0 5.5-5.505V8.809h7.7A1.1 1.1 0 0 0 66 7.708V5.505A5.51 5.51 0 0 0 60.5 0zM39.626 55.054H5.5a3.302 3.302 0 0 1-3.3-3.303v-1.102h37.426v4.405zm8.8 5.505l-2.64-1.982a1.098 1.098 0 0 0-1.32 0l-2.64 1.982V48.261c.213.017.427.013.638-.012a3.35 3.35 0 0 0 5.298 0c.22.026.44.03.66.012l.004 12.298zm1.415-17.64a1.1 1.1 0 0 0-.625 1.512 1.143 1.143 0 1 1-1.518 1.528 1.1 1.1 0 0 0-1.51.625 1.14 1.14 0 0 1-2.15 0 1.101 1.101 0 0 0-1.51-.625 1.142 1.142 0 0 1-1.518-1.528 1.101 1.101 0 0 0-.624-1.511 1.146 1.146 0 0 1 0-2.158 1.1 1.1 0 0 0 .624-1.51 1.144 1.144 0 0 1 1.518-1.53 1.1 1.1 0 0 0 1.51-.625 1.14 1.14 0 0 1 2.15 0 1.102 1.102 0 0 0 1.51.626 1.143 1.143 0 0 1 1.518 1.528 1.1 1.1 0 0 0 .625 1.51 1.147 1.147 0 0 1 0 2.159zm6.174-40.58c-.062.089-.117.183-.174.275a5.513 5.513 0 0 0-.317.583c-.05.11-.096.212-.139.32-.082.216-.15.436-.205.66-.025.103-.057.202-.076.306A5.492 5.492 0 0 0 55 5.505v46.246a3.302 3.302 0 0 1-3.3 3.303 3.271 3.271 0 0 1-1.074-.203v-7.66a3.304 3.304 0 0 0 .88-2.696 3.365 3.365 0 0 0 0-5.308 3.362 3.362 0 0 0-.952-2.793 3.352 3.352 0 0 0-2.788-.961 3.35 3.35 0 0 0-5.297 0 3.354 3.354 0 0 0-2.787.962 3.364 3.364 0 0 0-.953 2.792 3.365 3.365 0 0 0 0 5.308c-.13 1 .203 2.004.904 2.73v1.222H11V5.505a3.302 3.302 0 0 1 3.3-3.303h41.8c-.03.043-.054.093-.085.138zM63.8 6.607h-6.6v-1.1a3.302 3.302 0 0 1 3.3-3.304c1.822 0 3.3 1.48 3.3 3.303v1.101z"/>
        <path d="M36.3 8.809h4.4v2.202h-4.4zM25.3 8.809h8.8v2.202h-8.8zM22 14.314h22v2.202H22zM16.5 20.92H22v2.203h-5.5zM16.5 26.426h12.1v2.202H16.5zM24.2 20.92h25.3v2.203H24.2zM30.8 26.426h18.7v2.202H30.8zM16.5 31.931h22v2.202h-22zM16.5 37.437h18.7v2.202H16.5z"/>
    </g>
</svg>
