<svg xmlns="http://www.w3.org/2000/svg" width="48" height="48" viewBox="0 0 48 48">
    <path fill="#EE3E36" fill-rule="nonzero" d="M3.575 47.998c-1.529 0-2.759-.779-3.29-2.083-.883-2.168.391-5.15 3.497-8.183 2.43-2.375 5.826-4.33 10.097-5.815 2.272-4.216 4.362-8.73 5.828-12.589-3.246-5.049-3.845-11.283-2.71-14.766.735-2.253 2.007-3.1 2.943-3.414 1.306-.44 2.64-.11 3.57.889 1.401 1.507 1.914 4.541 1.571 9.276-.137 1.888-.764 4.423-1.868 7.546l.146.18c.737.9 1.523 1.89 2.346 2.928 1.757 2.216 3.732 4.704 5.74 6.935a54.264 54.264 0 0 1 1.717-.027c7.093 0 11.857 1.484 13.413 4.178.663 1.15.677 2.442.038 3.548-.862 1.493-2.726 2.384-4.989 2.384a9.27 9.27 0 0 1-1.684-.158c-2.85-.526-5.98-2.672-9.813-6.736-.98.053-2.005.13-3.057.233-2.26.217-6.619.786-11.033 2.177-1.899 3.43-5.986 10.357-9.034 12.35-1.153.75-2.337 1.147-3.428 1.147zm7.786-11.67c-2.186 1.056-3.99 2.274-5.393 3.645-2.758 2.694-2.938 4.382-2.783 4.76.045.11.238.133.39.133.467 0 1.092-.232 1.713-.637 1.363-.89 3.613-3.844 6.073-7.901zm23.13-4.303c2.362 2.19 4.344 3.415 6.016 3.724.382.07.757.106 1.114.106h.001c1.24 0 2.05-.425 2.28-.82.041-.073.1-.173-.04-.417-.526-.908-3.09-2.406-9.372-2.593zm-12.569-9.782a114.686 114.686 0 0 1-3.869 8.445 61.913 61.913 0 0 1 8.715-1.48c.245-.023.488-.046.729-.067-1.494-1.76-2.93-3.568-4.245-5.228-.455-.574-.9-1.133-1.33-1.67zm-.834-18.157a.502.502 0 0 0-.153.03c-.352.118-.712.649-.963 1.419-.751 2.304-.453 6.18 1.111 9.752.498-1.693.796-3.115.874-4.198.382-5.268-.47-6.628-.742-6.918-.076-.085-.104-.085-.127-.085z"/>
</svg>
