<svg xmlns="http://www.w3.org/2000/svg" width="390" height="48" viewBox="0 0 390 48">
    <g fill="none" fill-rule="evenodd">
        <path fill="#E31E24" d="M297.819 9.377a16.914 16.914 0 0 0-12.86-1.69 16.894 16.894 0 0 0-10.29 7.885 16.859 16.859 0 0 0-1.692 12.844 16.878 16.878 0 0 0 7.896 10.278 16.913 16.913 0 0 0 12.859 1.69 16.893 16.893 0 0 0 10.29-7.885 16.857 16.857 0 0 0 1.692-12.844 16.877 16.877 0 0 0-7.895-10.278zm-14.67-8.44a23.89 23.89 0 0 1 18.167 2.39 23.84 23.84 0 0 1 11.155 14.52 23.813 23.813 0 0 1-2.392 18.145 23.862 23.862 0 0 1-14.537 11.141 23.89 23.89 0 0 1-18.166-2.39 23.84 23.84 0 0 1-11.156-14.519 23.812 23.812 0 0 1 2.393-18.145A23.86 23.86 0 0 1 283.149.937zm7.59 10.451c4.16-1.113 8.435 1.352 9.55 5.507 1.114 4.154-1.355 8.425-5.515 9.538-4.159 1.113-8.434-1.352-9.548-5.507-1.115-4.155 1.353-8.425 5.512-9.538z"/>
        <g fill="#6C717F">
            <path d="M36.878 32.74c0-8.799-5.977-12.192-15.855-14.643-5.284-1.32-6.669-1.885-6.669-3.645 0-1.194 1.133-2.137 4.845-2.137 3.271 0 6.795.943 9.752 2.703.692.44 1.321.251 1.762-.377l4.97-7.479c.44-.69.315-1.32-.377-1.76C29.957 1.948 25.302.69 19.639.69 9.699.69 1.834 5.277 1.834 14.075c0 10.809 9.94 14.265 16.106 15.46 3.46.69 6.292 1.633 6.292 3.58 0 1.447-1.384 2.515-5.033 2.515-4.027 0-7.865-1.697-11.325-4.085-.63-.503-1.322-.377-1.762.251L.89 39.275c-.44.628-.377 1.256.252 1.76 5.6 4.46 10.444 6.346 17.05 6.346 12.583 0 18.686-6.41 18.686-14.642M53.614 46.501c.818 0 1.259-.44 1.259-1.256v-4.588c0-5.593-.252-13.511-.693-20.424l.315-.063c.944 2.577 3.838 9.364 5.725 13.512l1.07 2.325c.315.691.755.943 1.447.943h7.047c.692 0 1.132-.252 1.447-.943l1.07-2.325c1.887-4.148 4.781-10.935 5.725-13.512l.315.063c-.44 6.913-.692 14.831-.692 20.424v4.588c0 .817.44 1.256 1.258 1.256h9.563c.818 0 1.258-.44 1.258-1.256V2.826c0-.816-.44-1.256-1.258-1.256H77.711c-.692 0-1.132.314-1.447.942l-4.026 8.107c-2.077 4.21-4.782 10.683-5.852 13.385h-.251c-1.07-2.702-3.775-9.175-5.851-13.385l-4.027-8.107c-.315-.628-.755-.942-1.447-.942H44.05c-.817 0-1.257.44-1.257 1.256v42.419c0 .817.44 1.256 1.258 1.256h9.563zM104.643 46.501c.692 0 1.258-.314 1.447-1.068l1.762-6.158h13.652l1.699 6.158c.189.754.755 1.068 1.447 1.068h10.381c.881 0 1.322-.565 1.007-1.445L121.82 2.575c-.252-.691-.692-1.005-1.384-1.005h-11.577c-.692 0-1.132.314-1.384 1.005l-14.22 42.481c-.314.88.127 1.445 1.007 1.445h10.382zm9.878-31.61h.251l3.775 14.014h-7.739l3.713-14.013zM174.62 46.501c1.006 0 1.32-.628.817-1.508l-8.808-14.39c5.159-2.452 7.927-6.976 7.927-13.198 0-9.551-6.103-15.835-17.05-15.835h-15.981c-.818 0-1.258.44-1.258 1.256v42.419c0 .817.44 1.256 1.258 1.256h9.752c.818 0 1.258-.44 1.258-1.256V32.614h2.706l6.795 13.008c.314.628.755.88 1.447.88h11.136zm-17.743-33.62c3.586 0 5.033 1.508 5.033 4.588 0 3.268-1.447 4.65-5.033 4.65h-4.342V12.88h4.342zM178.583 1.57c-.818 0-1.258.44-1.258 1.256v8.924c0 .817.44 1.257 1.258 1.257h10.507v32.238c0 .817.44 1.256 1.258 1.256h9.752c.818 0 1.259-.44 1.259-1.256V13.007h10.507c.818 0 1.258-.44 1.258-1.257V2.826c0-.816-.44-1.256-1.258-1.256h-33.283zM263.819 32.74c0-8.799-5.977-12.192-15.855-14.643-5.285-1.32-6.67-1.885-6.67-3.645 0-1.194 1.133-2.137 4.845-2.137 3.272 0 6.795.943 9.752 2.703.692.44 1.321.251 1.762-.377l4.97-7.479c.44-.69.315-1.32-.377-1.76C256.898 1.948 252.242.69 246.579.69c-9.94 0-17.805 4.587-17.805 13.385 0 10.809 9.941 14.265 16.107 15.46 3.46.69 6.291 1.633 6.291 3.58 0 1.447-1.384 2.515-5.033 2.515-4.027 0-7.864-1.697-11.325-4.085-.63-.503-1.321-.377-1.761.251l-5.222 7.479c-.441.628-.378 1.256.251 1.76 5.6 4.46 10.444 6.346 17.05 6.346 12.584 0 18.687-6.41 18.687-14.642M351.332 46.501c1.006 0 1.321-.628.818-1.508l-8.808-14.39c5.159-2.452 7.927-6.976 7.927-13.198 0-9.551-6.103-15.835-17.05-15.835h-15.981c-.818 0-1.259.44-1.259 1.256v42.419c0 .817.441 1.256 1.259 1.256h9.752c.818 0 1.258-.44 1.258-1.256V32.614h2.706l6.795 13.008c.314.628.754.88 1.447.88h11.136zm-17.743-33.62c3.587 0 5.034 1.508 5.034 4.588 0 3.268-1.447 4.65-5.034 4.65h-4.34V12.88h4.34zM355.296 1.57c-.818 0-1.259.44-1.259 1.256v8.924c0 .817.44 1.257 1.259 1.257h10.507v32.238c0 .817.44 1.256 1.258 1.256h9.752c.818 0 1.259-.44 1.259-1.256V13.007h10.507c.817 0 1.258-.44 1.258-1.257V2.826c0-.816-.44-1.256-1.258-1.256h-33.283z"/>
        </g>
    </g>
</svg>
